<?xml version="1.0" encoding="UTF-8" standalone="no"?>
<!-- Created with Inkscape (http://www.inkscape.org/) -->

<svg
   xmlns:dc="http://purl.org/dc/elements/1.1/"
   xmlns:cc="http://creativecommons.org/ns#"
   xmlns:rdf="http://www.w3.org/1999/02/22-rdf-syntax-ns#"
   xmlns:svg="http://www.w3.org/2000/svg"
   xmlns="http://www.w3.org/2000/svg"
   xmlns:sodipodi="http://sodipodi.sourceforge.net/DTD/sodipodi-0.dtd"
   xmlns:inkscape="http://www.inkscape.org/namespaces/inkscape"
   width="846.66669mm"
   height="846.47815mm"
   viewBox="0 0 3000.0001 2999.332"
   id="svg3496"
   version="1.1"
   inkscape:version="0.91 r13725"
   sodipodi:docname="agenda.svg">
  <defs
     id="defs3498" />
  <sodipodi:namedview
     id="base"
     pagecolor="#ffffff"
     bordercolor="#666666"
     borderopacity="1.0"
     inkscape:pageopacity="0.0"
     inkscape:pageshadow="2"
     inkscape:zoom="0.12374369"
     inkscape:cx="1490.9959"
     inkscape:cy="850.4431"
     inkscape:document-units="px"
     inkscape:current-layer="layer1"
     showgrid="false"
     fit-margin-top="0"
     fit-margin-left="0"
     fit-margin-right="0"
     fit-margin-bottom="0"
     inkscape:window-width="1360"
     inkscape:window-height="717"
     inkscape:window-x="0"
     inkscape:window-y="0"
     inkscape:window-maximized="1" />
  <metadata
     id="metadata3501">
    <rdf:RDF>
      <cc:Work
         rdf:about="">
        <dc:format>image/svg+xml</dc:format>
        <dc:type
           rdf:resource="http://purl.org/dc/dcmitype/StillImage" />
        <dc:title></dc:title>
      </cc:Work>
    </rdf:RDF>
  </metadata>
  <g
     inkscape:label="Capa 1"
     inkscape:groupmode="layer"
     id="layer1"
     transform="translate(1896.2033,1127.4594)">
    <path
       style="fill:#085b9e;fill-opacity:1;stroke:#085b9e;stroke-opacity:1"
       d="m -645.83505,1866.3981 c 0,-3.0109 1.9882,-5.4744 4.4182,-5.4744 2.4301,0 4.4183,2.4635 4.4183,5.4744 0,3.011 -1.9882,5.4745 -4.4183,5.4745 -2.43,0 -4.4182,-2.4635 -4.4182,-5.4745 z m -53.18418,-43.1123 c -19.51286,-25.4079 -28.47756,-33.1203 -40.09741,-34.4957 -9.72203,-1.1508 -14.96585,-4.6488 -14.96585,-9.9832 0,-4.5164 -1.98821,-10.0216 -4.41826,-12.2337 -2.49499,-2.2712 -1.05256,-4.0585 3.3137,-4.1058 4.25258,-0.044 7.73196,-2.5474 7.73196,-5.5583 0,-3.011 -5.96466,-5.4745 -13.25479,-5.4745 -7.62225,0 -13.28355,2.908 -13.32243,6.8431 -0.0451,4.562 -1.49532,4.1058 -4.35062,-1.3686 -3.33747,-6.3989 -4.29786,-4.8884 -4.35062,6.8431 -0.0353,8.2801 -1.91386,15.0547 -4.17031,15.0547 -5.15527,0 -17.98864,-15.6222 -17.98864,-21.8978 0,-2.5808 -3.47938,-9.0066 -7.73196,-14.2796 -5.57677,-6.9149 -7.81763,-18.8499 -8.03934,-42.818 -0.4564,-49.3398 -0.52564,-49.6407 -9.37727,-40.7442 -4.49262,4.5153 -6.2062,4.8924 -4.29451,0.9449 2.8424,-5.8692 -12.8199,-21.744 -19.34585,-19.6082 -1.31845,0.4314 -2.86352,-7.0515 -3.43352,-16.6289 -0.60026,-10.0856 -4.92256,-21.0828 -10.27126,-26.133 -6.43935,-6.08 -8.36338,-12.1219 -6.35594,-19.9589 5.20529,-20.3209 6.42738,-45.2138 2.25398,-45.911 -7.30582,-1.2204 -10.46284,-2.577 -27.76175,-11.9295 -9.37083,-5.0662 -19.02787,-7.6874 -21.46012,-5.8248 -2.77255,2.1231 -3.24495,-1.2095 -1.26641,-8.9336 1.8346,-7.162 1.44257,-11.0081 -0.93631,-9.1864 -2.28372,1.7488 -3.28838,-3.6518 -2.27342,-12.2204 1.79377,-15.1433 -7.8509,-26.4069 -16.76585,-19.5801 -2.04287,1.5644 -5.15297,-0.038 -6.91135,-3.5653 -1.9967,-4.003 -1.28192,-4.943 1.90383,-2.5034 3.05293,2.3378 5.10092,0.3498 5.10092,-4.9517 0,-4.8718 1.87043,-7.4255 4.15657,-5.6749 7.11495,5.4485 -0.3053,-37.6216 -7.74667,-44.9638 -10.68733,-10.5452 -14.89993,-8.137 -9.57641,5.4744 4.5661,11.6749 4.46634,11.7756 -1.91213,1.9308 -3.70127,-5.7128 -5.76592,-12.3189 -4.5881,-14.6802 1.17786,-2.3614 -1.37112,-7.5713 -5.66435,-11.5777 -13.54232,-12.6375 -20.77011,-33.4778 -23.16207,-66.7847 -2.21731,-30.8751 -2.88645,-32.3634 -15.57161,-34.6343 -7.2902,-1.3051 -16.6428,-2.346 -20.7836,-2.3131 -17.1867,0.1366 -52.1178,-66.7737 -52.1178,-99.8313 0,-10.4108 -4.9705,-31.1907 -11.0456,-46.1774 -6.3988,-15.7851 -11.0457,-36.6711 -11.0457,-49.6463 0,-19.9813 -1.5493,-23.2598 -14.3593,-30.3859 -19.1425,-10.6487 -34.2416,-27.4936 -34.2416,-38.2007 0,-4.7865 -1.7077,-8.7028 -3.7951,-8.7028 -2.0872,0 -3.4127,-11.3716 -2.9454,-25.2703 0.7704,-22.914 -0.4207,-26.2019 -12.7734,-35.2593 -26.1199,-19.1523 -36.3559,-36.2895 -36.8189,-61.6425 -0.2024,-11.09 -0.5339,-24.8236 -0.7364,-30.5191 -0.2333,-6.5608 -4.8205,-11.7117 -12.5184,-14.0568 -29.3696,-8.9472 -43.9278,-35.2839 -42.9357,-77.6734 0.4741,-20.2557 -0.9385,-23.5746 -13.09,-30.7545 -18.9292,-11.1845 -35.3675,-52.6131 -31.8109,-80.1715 2.4724,-19.158 1.6814,-21.014 -12.5356,-29.4144 -20.0062,-11.8209 -29.7362,-31.3178 -32.3317,-64.7863 -1.98,-25.5336 -3.2564,-28.0007 -18.8045,-36.3468 -16.6132,-8.918 -29.9937,-32.2461 -35.0513,-61.1098 -1.2766,-7.2851 -8.1094,-17.2185 -15.1841,-22.0743 -7.0747,-4.8558 -15.0276,-13.6763 -17.673,-19.6011 -2.6455,-5.9249 -6.3277,-12.1699 -8.1826,-13.8779 -1.855,-1.708 -4.354,-15.1224 -5.5535,-29.8099 -2.2232,-27.2242 -7.7028,-36.7185 -18.2874,-31.6859 -3.2579,1.5491 -5.9235,0.3565 -5.9235,-2.6502 0,-3.0067 -4.569,-6.8876 -10.1535,-8.6243 -11.6634,-3.6271 -29.6108,-39.5925 -29.6108,-59.3381 0,-7.615 -5.6571,-20.0006 -13.2548,-29.0197 -10.6706,-12.6669 -13.2548,-20.2866 -13.2548,-39.0824 0,-21.4993 -1.5689,-24.6853 -19.8159,-40.2407 -23.3103,-19.8718 -28.785,-30.7466 -28.785,-57.1783 0,-12.677496 -3.0977,-22.878996 -8.8365,-29.100796 -4.8601,-5.2692 -12.813,-13.8914 -17.673,-19.1606 -6.0751,-6.5865 -8.8366,-16.4234 -8.8366,-31.4781 0,-22.7185996 -11.5404,-43.7956 -23.9797,-43.7956 -10.8866,0 -24.6211,-27.4232 -24.6211,-49.1599 0,-13.6883 -3.0289,-23.7073 -9.2889,-30.7269 -13.0171,-14.596404 -21.639,-37.112404 -21.639,-56.510104 0,-11.5302 -2.9953,-18.4693 -9.9411,-23.0297 -16.714,-10.9742 -29.8121,-33.8005 -29.8178,-51.9639 0,-13.8103 -3.4888,-20.0385 -18.3492,-32.7986 -18.7522,-16.1018 -30.2571,-40.6101 -30.2571,-64.455 0,-8.1409 -5.1873,-18.7835 -13.2548,-27.1947 -7.2901,-7.6006 -13.2548,-17.6736 -13.2548,-22.3844 0,-4.7108 -1.9883,-8.5651 -4.4183,-8.5651 -2.43,0 -4.4183,-4.927 -4.4183,-10.9489 0,-6.0219 -2.4852,-10.3331 -5.5228,-9.5803 -3.1062,0.7697 -6.1346,-5.2189 -6.9209,-13.6862 -0.7689,-8.2801 -3.0332,-15.0547 -5.0319,-15.0547 -1.9986,0 -3.3577,-4.3111 -3.0202,-9.5803 0.3375,-5.2692 -1.6899,-9.0395 -4.5053,-8.3785 -5.1732,1.2146 -5.1814,-23.1106 -0.01,-29.5182 2.5927,-3.2126 -17.7179,-19.4697 -33.5308,-26.839 -6.2526,-2.9139 -7.732,-10.2898 -7.732,-38.5488 0,-32.4166 4.5429,-44.3658 10.6841,-28.1024 1.4212,3.7637 1.3123,-3.0109 -0.2419,-15.0547 -4.8164,-37.3224 -5.9247,-74.4753 -2.135,-71.5732 1.9887,1.5229 6.0655,-2.9026 9.0595,-9.8344 2.9941,-6.9318 16.7142,-21.6163 30.4892,-32.6321 13.775,-11.0158 22.7361,-20.0413 19.9135,-20.0566 -2.8225,-0.015 -4.4658,-4.3389 -3.6517,-9.6081 0.8141,-5.2691 1.6323,-11.1105 1.8182,-12.98084 0.1859,-1.8703 10.623,-5.09106 23.1936,-7.15723 12.5706,-2.06617 26.3674,-6.08547 30.6597,-8.93177 4.5172,-2.99545 8.8293,-3.11993 10.2381,-0.29556 1.3386,2.68374 -10.5553,7.91629 -26.431,11.6279 -30.7787,7.1958 -36.7794,18.604 -10.4008,19.7734 8.2786,0.367 19.5547,0.9829 25.058,1.3687 11.8991,0.8339 27.5084,29.5526 27.5327,50.6556 0.013,11.6245 2.5843,15.0068 13.4542,17.7005 10.4359,2.5861 15.3492,8.548 21.9943,26.6879 4.7061,12.8469 8.6002,27.6691 8.6536,32.9383 0.091,9.0011 5.3741,12.3189 15.5609,9.7724 2.4301,-0.6075 2.9859,0.6703 1.2351,2.8396 -1.7507,2.1692 0.5638,10.4641 5.1434,18.433 4.5796,7.9689 9.7162,23.6668 11.4146,34.8842 2.317,15.3034 5.721,21.2143 13.6342,23.6751 5.8004,1.8039 10.5462,6.4062 10.5462,10.2276 0,3.8213 2.9824,10.0147 6.6274,13.763 3.6451,3.7483 6.6579,13.288 6.6951,21.1995 0.057,12.1012 8.501,38.2906 8.7012,26.9867 0.037,-2.1016 5.8881,-1.307 13.0019,1.7657 14.2043,6.1354 22.4118,27.0761 22.4118,57.1818 0,15.4703 1.8153,18.4027 13.3316,21.5368 15.6414,4.2567 26.2392,25.7587 27.6749,56.1498 0.7812,16.5373 3.3086,21.7394 13.1509,27.068 13.2787,7.189 21.6182,26.6112 24.0802,56.081 0.8675,10.3849 2.0975,19.5261 2.7333,20.3139 0.6358,0.7878 9.0917,2.1451 18.7909,3.0162 11.8133,1.0609 17.836,4.2946 18.2439,9.7955 0.335,4.5164 3.2687,22.9927 6.5194,41.0583 5.6954,31.6517 6.3909,32.8032 19.1168,31.6496 9.8445,-0.8924 11.5193,0.1313 6.579,4.022 -6.068,4.7787 -3.0551,7.8165 5.8513,5.8995 2.0031,-0.4309 2.5639,1.3777 1.2461,4.019604 -1.3178,2.642 0.4594,9.4777 3.9493,15.1904 3.49,5.7128 6.4086,20.5488 6.4859,32.9689 0.1294,20.8261 1.2065,22.8464 13.8491,25.9793 7.5397,1.8684 15.5418,1.9932 17.7825,0.2775 2.2406,-1.7158 3.592,-1.0889 3.0029,1.3931 -0.5891,2.482 1.5959,13.135 4.8556,23.6733004 3.2597,10.5382996 5.5278,27.1733996 5.0404,36.9667996 -0.8086,16.2427 0.8539,18.7305 18.933,28.3326 22.7553,12.0858 27.8606,24.723 29.0923,72.011996 0.2912,11.1851 3.5529,15.3473 15.6232,19.9373 11.1629,4.2451 15.8691,4.1243 17.5445,-0.45 1.2592,-3.4381 2.0285,-2.5559 1.7095,1.9605 -0.319,4.5165 1.9091,15.6022 4.9513,24.6351 3.0422,9.0328 5.7018,26.8932 5.9101,39.6898 0.3654,22.4456 0.8795,23.2664 14.57,23.2664 27.0344,0 35.9935,18.826 37.0068,77.7629 0.2156,12.5448 2.6552,15.3647 15.9697,18.4596 23.8722,5.549 31.6567,25.1927 32.6037,82.2739 0.2381,14.3482 2.513,17.7928 14.5844,22.0824 19.6099,6.9685 33.941,39.0041 32.8789,73.4972 -0.5291,17.1817 0.8619,24.85 4.2176,23.2504 10.977,-5.2328 36.2475,13.9227 43.5615,33.0204 7.9264,20.6965 8.078,63.7782 0.2483,70.573 -2.5489,2.2121 2.9521,4.0598 12.2245,4.1059 9.2724,0.044 20.5536,2.5338 25.0693,5.5282 13.612,9.0264 23.1782,38.5406 22.4202,69.1722 -0.6888,27.8427 -0.5655,28.1139 14.3681,31.5852 15.74811,3.6606 22.70784,11.5043 34.49046,38.8712 7.53827,17.5086 10.59893,60.5459 4.63087,65.1161 -8.44268,6.4652 -26.14273,7.4576 -26.01093,1.4584 0.6275,-28.5871 -1.0895,-32.2283 -13.3937,-28.4018 -6.6777,2.0766 -12.7231,4.4967 -13.4344,5.3779 -0.7112,0.8813 3.0528,10.7288 8.3644,21.8835 7.7321,16.2377 11.5116,19.5799 18.9572,16.7641 38.24371,-14.4635 65.88431,-6.1542 71.48384,21.4895 1.47292,7.2714 5.58221,14.6016 9.13175,16.2893 5.06033,2.406 5.97292,10.5325 4.22678,37.6396 l -2.22694,34.571 15.38602,0.5404 c 18.62373,0.6541 25.03692,6.7328 36.92938,35.0032 9.55856,22.7223 12.42866,67.4509 4.70748,73.3636 -2.43004,1.8609 -4.55284,-1.0731 -4.71729,-6.52 -0.2483,-8.23 -1.10916,-7.822 -5.09341,2.4141 -7.00286,17.9913 -11.1141,15.1762 -14.54108,-9.9569 -2.26202,-16.5893 -4.70872,-21.4797 -9.58626,-19.1606 -3.60199,1.7127 -9.3429,3.1139 -12.75764,3.1139 -4.81617,0 -4.02985,5.5566 3.50611,24.7759 7.11102,18.1355 11.53626,23.8005 16.51105,21.1367 3.73798,-2.0015 18.00574,-4.8045 31.70615,-6.2288 26.85031,-2.7916 26.04168,-3.3624 51.06442,36.0459 9.13211,14.3821 11.42271,23.6212 10.8125,43.6109 -0.83248,27.2706 -9.46714,47.0404 -9.46714,21.6759 0,-18.0171 -7.69582,-25.0299 -9.62523,-8.771 -2.14082,18.0407 -11.28437,18.2704 -14.45863,0.3629 -1.98495,-11.1979 -5.28384,-15.5545 -11.35811,-15 -14.34663,1.3096 -14.72178,6.7747 -2.27183,33.0974 9.06221,19.1601 13.7427,24.3533 19.31439,21.4304 13.71301,-7.1938 52.43165,-9.1594 61.5334,-3.1238 13.22952,8.7727 32.4813,54.2497 30.19246,71.3212 -1.0492,7.8255 -2.23259,20.3869 -2.62979,27.9143 -0.71346,13.5211 -0.79604,13.4881 -6.84946,-2.7372 -5.92383,-15.878 -6.22246,-16.0143 -8.99297,-4.1059 -1.57613,6.7747 -4.55209,12.3175 -6.61321,12.3175 -5.36757,0 -12.0627,-17.9102 -9.72058,-26.0036 2.06506,-7.1359 -16.87444,-9.941 -22.23919,-3.2938 -1.5755,1.9522 2.29291,15.2905 8.59648,29.6409 l 11.46102,26.0915 32.46331,-3.0421 c 35.58845,-3.335 54.90927,5.5789 54.90927,25.3331 0,5.5838 2.9823,13.2192 6.6274,16.9675 6.9199,7.1158 8.1671,36.0055 2.5998,60.219 l -3.1469,13.6861 -3.2606,-15.7275 c -3.0757,-14.8357 -3.6034,-15.1466 -9.3063,-5.4831 -6.92802,11.7396 -12.32573,7.6061 -13.41147,-10.2702 -0.62134,-10.2308 -2.92644,-11.9931 -13.6208,-10.4138 -7.08009,1.0455 -13.30825,2.4062 -13.84038,3.0236 -0.53214,0.6174 5.38268,13.9172 13.14407,29.5552 11.18165,22.5293 15.87861,27.7376 22.62238,25.0856 14.8896,-5.8555 49.654,-3.6068 60.6361,3.9222 5.8318,3.998 11.6724,6.9201 12.9792,6.4934 1.3067,-0.4265 2.7986,5.5537 3.3154,13.2897 0.5167,7.736 4.0996,16.9286 7.962,20.428 8.9026,8.0659 10.932,63.2721 2.3259,63.2721 -2.1466,0 -5.1607,-5.5429 -6.698,-12.3175 -2.5509,-11.2415 -3.1941,-11.4806 -7.3623,-2.7373 -6.4207,13.4684 -12.324,11.9115 -15.5686,-4.1058 -1.9179,-9.4685 -5.8017,-13.6861 -12.6025,-13.6861 -5.4067,0 -11.0222,1.4767 -12.4788,3.2816 -4.0551,5.0245 42.1148,95.2585 48.7407,95.2585 3.1998,0 68.8619,-36.6673 145.9158,-81.4829 77.0539,-44.8156 170.9154,-99.2751 208.5811,-121.0212 37.6657,-21.746 87.3711,-50.6246 110.4565,-64.1747 23.0854,-13.55 64.837997,-37.6547 92.783497,-53.5659 27.9455,-15.9113 71.6863,-41.1754 97.2018,-56.1424 25.5155,-14.9671 155.743703,-90.64 289.396203,-168.1622 133.6524,-77.5222 265.4877,-154.2304 292.9672,-170.4628 27.4797,-16.2323 50.6467,-29.5134 51.4824,-29.5134 0.8356,0 28.5247,-16.0128 61.5312,-35.5839 33.0066,-19.5712 60.7937,-35.584 61.7492,-35.584 0.9555,0 30.3118,-16.9296 65.2364,-37.6215 34.9245,-20.6918 96.8989,-56.8808 137.72085,-80.4199 l 74.2216,-42.7985 -70.1366,-87.9195 C 969.00685,556.5094 640.76045,148.361 278.14555,-302.1313 l -659.2999,-819.0769 -29.3145,7.6137 c -16.1229,4.1876 -31.4382,6.5205 -34.034,5.1843 -2.5957,-1.3362 -0.6885,-2.6239 4.2384,-2.8616 4.927,-0.2378 13.3648,-4.2568 18.751,-8.9312 12.1528,-10.547 56.238,-9.0734 56.238,1.8798 0,3.8869 264.4489,335.22815 587.6642,736.3139 323.2153,401.085804 651.583,809.3342 729.7061,907.2186 115.41055,144.604 142.89875,176.4224 146.61205,169.7081 3.2717,-5.9159 4.644,10.2021 4.83,56.7313 0.2443,61.0697 -0.2073,64.5523 -7.4722,57.6623 -12.1044,-11.4797 -12.6156,-12.381 -5.1546,-9.088 5.418,2.3912 6.9956,-0.7579 6.9956,-13.9638 0,-15.0421 -0.4842,-15.7067 -4.1093,-5.6407 -4.0027,11.115 -15.4426,18.4994 -97.72245,63.08 -45.9113,24.8754 -58.8008,34.7283 -50.4292,38.5486 8.4653,3.8631 17.267,-1.2948 13.8612,-8.1228 -1.9019,-3.8129 -0.2487,-4.6474 4.6202,-2.3323 4.9073,2.3333 6.5263,1.489 4.5898,-2.3934 -2.0187,-4.0471 0.4219,-4.8004 7.5025,-2.3159 8.4304,2.9581 9.1909,2.4646 3.867,-2.5094 -5.324,-4.9739 -4.5634,-5.4674 3.867,-2.5093 7.8687,2.761 9.6218,1.9331 7.0071,-3.3089 -2.5006,-5.0133 -1.3422,-5.9714 4.0944,-3.3864 4.7652,2.2656 6.51105,1.4584 4.6998,-2.1731 -1.5851,-3.1778 -0.1971,-5.3213 3.08415,-4.7631 13.8097,2.3488 21.8366,-0.513 18.7569,-6.6873 -2.1675,-4.3454 -0.7568,-5.2457 4.387,-2.7999 5.1093,2.4293 6.5501,1.5367 4.4182,-2.7372 -2.1318,-4.274 -0.691,-5.1666 4.4183,-2.7373 4.9073,2.3333 6.5263,1.489 4.5898,-2.3934 -2.0187,-4.047 0.4219,-4.8004 7.5025,-2.3159 8.4691,2.9718 9.2154,2.4763 3.867,-2.5675 -5.8275,-5.4954 -5.8322,-5.9812 -0.04,-4.0245 3.6234,1.2239 9.1485,-0.9474 12.2781,-4.8251 3.1296,-3.8777 9.112,-5.6909 13.2942,-4.0293 6.4536,2.5639 6.6014,2.1273 0.9767,-2.886 -7.6338,-6.8041 -0.6226,-8.1339 7.8319,-1.4855 6.0264,4.7391 -788.99565,480.1807 -1521.41865,909.8436 -109.1694,64.0423 -201.7253,119.8669 -205.6798,124.0548 -3.9545,4.1879 -12.7516,8.8639 -19.5491,10.3912 -10.614,2.3848 -15.9077,-1.8438 -37.49069,-29.9474 z m -44.0176,-47.5392 c 0,-4.6941 -2.02065,-6.9874 -4.49033,-5.0962 -2.46967,1.8912 -3.34648,5.7319 -1.94836,8.5348 3.78747,7.5933 6.43869,6.1774 6.43869,-3.4386 z m 100.61208,-37.7066 c -8.5135,-19.9092 -62.05218,-125.9816 -67.0537,-132.849 -2.87081,-3.9417 -7.25594,-4.794 -10.77915,-2.0951 -7.30206,5.5939 -2.95657,16.9552 38.20345,99.8833 25.2574,50.888 29.9194,57.5341 36.6852,52.2987 6.2221,-4.8146 6.8028,-8.2146 2.9442,-17.2379 z m 30.8912,-19.2601 c 4.2196,-2.9053 17.6131,-10.6238 29.7633,-17.1521 12.1502,-6.5283 36.0088,-19.8661 53.0191,-29.6396 17.0103,-9.7733 45.8395,-25.7409 64.0648,-35.4834 18.2254,-9.7426 47.0545,-25.8197 64.0648,-35.727 59.6937,-34.7672 99.6211,-57.3724 101.3369,-57.3724 0.9528,0 22.2825,-12.0072 47.3995,-26.6827 25.1169,-14.6755 55.6083,-32.1563 67.7585,-38.8462 12.1502,-6.69 27.8644,-15.6225 34.9203,-19.8501 7.056,-4.2277 15.5059,-7.6866 18.7776,-7.6866 3.2718,0 5.9486,-2.4636 5.9486,-5.4745 0,-3.0109 2.9683,-5.4745 6.5961,-5.4745 3.6279,0 27.983597,-12.5802 54.123697,-27.9562 83.7233,-49.2469 121.3144,-70.5036 129.2655,-73.0957 1.215,-0.3963 10.4129,-6.0462 20.4397,-12.5558 10.0268,-6.5095 19.470803,-10.2988 20.986703,-8.4205 1.5159,1.8783 2.7562,0.5409 2.7562,-2.9717 0,-3.5128 2.8203,-6.3869 6.2674,-6.3869 3.447,0 20.7878,-8.6223 38.5351,-19.1606 17.7473,-10.5383 34.6435,-19.1606 37.5471,-19.1606 2.9036,0 5.9781,-2.5977 6.8322,-5.7726 0.8542,-3.1749 4.4992,-6.35 8.1002,-7.0557 3.6009,-0.7058 17.4824,-7.6582 30.8476,-15.45 13.3653,-7.7916 31.7563,-17.4289 40.8689,-21.4162 9.1127,-3.9873 16.5685,-9.2181 16.5685,-11.6242 0,-2.4061 2.63,-4.3747 5.8445,-4.3747 3.2144,0 17.629,-7.0606 32.0324,-15.6903 37.8707,-22.6899 67.2935,-39.0542 70.219,-39.0542 1.3983,0 18.9043,-9.6468 38.9022,-21.4372 70.4587,-41.5414 95.1064,-55.2052 99.5835,-55.2052 2.4877,0 5.1857,-1.8476 5.9958,-4.1058 0.81,-2.2582 13.402,-10.0971 27.9823,-17.4199 23.2408,-11.6723 62.2759,-33.499 141.3844,-79.0559 45.0951,-25.9693 62.5538,-35.7343 90.5743,-50.6598 15.7953,-8.4136 29.7128,-16.9102 30.9279,-18.8814 1.215,-1.9712 7.1456,-5.4958 13.1791,-7.8326 6.0335,-2.3367 24.9215,-12.2011 41.9735,-21.9208 17.0519,-9.7197 41.9387,-23.8682 55.3039,-31.4411 13.3653,-7.5728 37.2239,-21.1087 53.01915,-30.0797 15.7953,-8.9711 43.6303,-24.3383 61.8556,-34.1496 18.2254,-9.8112 33.6768,-18.4109 34.3365,-19.1103 0.6597,-0.6994 -0.3345,-6.1858 -2.2092,-12.1919 -3.1485,-10.0871 -27.3415,2.7738 -317.10515,168.5725 -295.5635,169.1172 -390.3852,223.4598 -479.3814,274.7352 -20.6554,11.9007 -75.3314,43.2777 -121.5022,69.7268 -46.1709,26.449 -99.852803,57.2382 -119.293103,68.4203 -65.3287002,37.5773 -242.022897,138.6105 -287.186997,164.2128 -14.5803,8.2652 -57.327,32.9196 -94.9927,54.7876 -37.6657,21.868 -99.3004,57.0787 -136.9661,78.2459 -37.6657,21.1672 -88.0085,49.7746 -111.8729,63.5722 -23.8644,13.7976 -45.1004,25.0865 -47.191,25.0865 -4.4853,0 -58.7124,-109.7261 -55.9305,-113.173 1.0452,-1.295 13.4891,21.1756 27.6531,49.9347 14.164,28.7592 27.419,52.2894 29.4556,52.2894 3.028,0 316.8626,-177.7324 473.7914,-268.32 75.878397,-43.801 208.842497,-119.8706 435.1989,-248.98 125.1472,-71.3818 254.3814,-145.2638 287.187,-164.1822 32.8056,-18.9185 162.0398,-92.8506 287.187,-164.2935 125.1473,-71.4428 228.41625,-130.9122 229.48665,-132.1541 1.0704,-1.2419 -1.277,-6.2515 -5.2164,-11.1326 -8.0281,-9.9472 4.2963,-16.5425 -303.79895,162.5755 -83.8365,48.7402 -166.3475,96.6902 -183.3579,106.5556 -77.3935,44.8855 -103.7124,60.1076 -132.5478,76.662 -17.0103,9.7656 -94.5508,54.7374 -172.3122,99.9374 -171.7048,99.8059 -203.220703,118.0962 -243.004503,141.0284 -58.5792002,33.7663 -97.5062,56.2966 -203.239997,117.6319 -58.3211,33.8316 -119.9558,69.5631 -136.9662,79.4033 -17.0103,9.8402 -80.6332,46.8158 -141.3843,82.1679 -185.3602,107.8643 -193.4216,112.4595 -194.5762,110.9123 -0.6148,-0.8239 -13.4605,-26.1331 -28.5461,-56.2426 -30.9256,-61.7249 -33.4035,-65.7561 -28.6302,-46.5758 2.9038,11.6684 2.4448,12.6658 -3.1714,6.8906 -3.6116,-3.7139 -7.73789,-5.3014 -9.1694,-3.5277 -3.69093,4.5733 1.41353,19.0657 5.589,15.8681 1.9011,-1.4557 3.1839,1.6378 2.8508,6.8745 -0.3349,5.2661 2.0093,8.8491 5.2455,8.0171 3.2182,-0.8273 4.5334,1.1378 2.9227,4.3671 -3.7411,7.5001 42.2282,98.4146 49.7615,98.4146 3.1071,0 9.1017,-2.3771 13.3213,-5.2825 z m 158.0098,-70.3026 c -1.3603,-1.6855 -4.9254,0 -7.9225,3.7379 -4.3311,5.4067 -3.8236,6.0354 2.4733,3.0646 4.3574,-2.0558 6.8095,-5.1169 5.4492,-6.8025 z m -298.34961,-125.4414 c 0,-7.3252 -19.76408,-45.1467 -24.85749,-47.5685 -9.71744,-4.6203 -11.2405,6.4443 -3.48955,25.3503 10.60679,25.8718 14.93616,31.3694 22.04267,27.9905 3.46741,-1.6486 6.30437,-4.2461 6.30437,-5.7723 z m 20.33236,-27.5319 c -11.29772,-26.5586 -18.6976,-36.4473 -22.1278,-29.5702 -1.7294,3.4671 -0.70741,6.3038 2.27107,6.3038 2.97848,0 4.16921,1.544 2.6461,3.4312 -4.50049,5.5764 9.77182,34.8899 16.98738,34.8899 5.83687,0 5.86352,-1.7956 0.22312,-15.0547 z m 1.97258,-20.1445 c -18.61091,-33.5164 -21.19684,-31.8499 -4.07594,2.6267 7.55099,15.2055 14.68304,26.4644 15.84897,25.0197 1.16594,-1.4447 -4.13191,-13.8855 -11.77303,-27.6464 z m -96.63968,-105.1897 c -21.53456,-38.1824 -30.23925,-29.9892 -12.15283,11.4387 11.06112,25.3361 13.89791,28.5523 20.60603,23.3615 7.14632,-5.5298 6.45875,-8.3603 -8.4532,-34.8002 z m 32.01093,-1.1525 c -12.06738,-25.2161 -19.35159,-35.6893 -22.29004,-32.0483 -4.2365,5.2492 6.97807,35.4627 14.48841,39.0336 3.57658,1.7006 5.27951,5.5446 3.78424,8.5423 -1.56738,3.1424 0.17496,4.0747 4.11424,2.2016 6.15274,-2.9254 6.14306,-4.6901 -0.0968,-17.7292 z m 8.96412,-5.2618 c -4.04235,-8.479 -11.24695,-21.4124 -16.01023,-28.7408 l -8.66055,-13.3246 5.34124,13.6861 c 6.6494,17.0382 21.63093,43.7957 24.52118,43.7957 1.18692,0 -1.14932,-6.9374 -5.19164,-15.4164 z m 904.3209,-37.9595 c 5.4958,-8.6829 5.3395,-8.8765 -1.6681,-2.067 -7.3598,7.1517 -9.7002,11.6472 -6.0638,11.6472 0.9174,0 4.3968,-4.3111 7.7319,-9.5802 z m -1001.87794,-71.9406 c -15.87357,-30.6177 -17.5583,-32.6885 -23.12518,-28.4255 -5.2337,4.0078 -1.85713,15.0225 15.74492,51.3618 1.16465,2.4045 4.96767,1.4408 8.45116,-2.1413 5.46893,-5.6238 5.32273,-8.4627 -1.0709,-20.795 z m 20.87987,-18.7654 c -9.15261,-17.9112 -18.09274,-25.3891 -18.09274,-15.1334 0,3.2618 1.98822,5.9306 4.41826,5.9306 2.43005,0 3.99663,1.8476 3.48133,4.1058 -1.58492,6.9453 11.31075,28.2098 15.26925,25.1786 2.0499,-1.5698 -0.23417,-10.6065 -5.0761,-20.0816 z m 11.07614,-2.3597 c -8.05361,-18.9324 -20.00602,-38.3113 -20.19185,-32.738 -0.18248,5.4705 21.36168,47.7927 24.3288,47.7927 1.24697,0 -0.61466,-6.7746 -4.13695,-15.0547 z m 1225.61753,-31.4781 c 6.0752,-4.3031 9.0575,-7.8237 6.6274,-7.8237 -2.43,0 -9.3888,3.5206 -15.4639,7.8237 -6.0751,4.303 -9.0574,7.8237 -6.6274,7.8237 2.4301,0 9.3888,-3.5207 15.4639,-7.8237 z m 53.0192,-30.1095 c 8.0764,-6.4671 1.1005,-6.4671 -11.0457,0 -5.8265,3.1022 -6.579,4.8074 -2.2091,5.0058 3.6451,0.1653 9.6097,-2.0871 13.2548,-5.0058 z m -1367.5478,-21.7061 c 2.96461,-5.9435 -18.84826,-49.4618 -24.79193,-49.4618 -6.03402,0 -4.54785,9.6444 5.09518,33.0648 8.89467,21.6027 14.69263,26.4294 19.69675,16.397 z m 1418.4747,-10.0834 c -1.3603,-1.6855 -4.9254,0 -7.9225,3.7379 -4.3311,5.4067 -3.8236,6.0355 2.4733,3.0646 4.3574,-2.0558 6.8096,-5.1169 5.4492,-6.8025 z m -1394.07861,-9.3863 c 0,-2.9751 -22.6013,-46.4155 -24.1492,-46.4155 -2.56197,0 1.4518,21.1021 6.50801,34.2154 4.88006,12.6565 17.64119,21.4817 17.64119,12.2001 z m 2.03974,-23.149 c -14.80361,-28.5246 -19.71278,-36.64 -19.71278,-32.5874 0,5.973 21.74673,47.6421 24.86399,47.6421 1.46403,0 -0.85401,-6.7746 -5.15121,-15.0547 z m 1451.74457,3.9946 c 9.6233,-6.0831 17.497,-12.292 17.497,-13.7975 0,-2.4527 -34.8772,17.726 -39.3962,22.7933 -4.8904,5.4838 6.1992,0.9284 21.8992,-8.9958 z m 43.6384,-25.2654 c 6.0633,-6.5729 -8.3176,-0.4686 -15.3559,6.518 -8.0867,8.0276 -7.9458,8.1416 2.4693,1.9957 6.0751,-3.5849 11.8741,-7.416 12.8866,-8.5137 z m 40.1325,-21.1563 c 6.0751,-4.303 9.0575,-7.8237 6.6274,-7.8237 -2.43,0 -9.3888,3.5207 -15.4639,7.8237 -6.0751,4.3031 -9.0574,7.8238 -6.6274,7.8238 2.4301,0 9.3888,-3.5207 15.4639,-7.8238 z m 30.9279,-16.4233 c 6.406,-4.5375 8.2618,-7.832 4.4182,-7.8436 -3.645,-0.011 -10.4868,3.5971 -15.2038,8.0177 -10.9127,10.2271 -3.7355,10.1112 10.7856,-0.1741 z m -1659.62585,-40.5111 c -12.7168,-22.2646 -22.6051,-30.0198 -17.5774,-13.7857 1.475,4.7627 2.6819,10.5892 2.6819,12.9479 0,2.3586 4.2322,10.9551 9.405,19.1032 6.2239,9.8039 10.8886,12.9767 13.79105,9.3805 2.90249,-3.5964 0.095,-12.9473 -8.30055,-27.6459 z m 1699.39015,18.6133 c 6.0751,-4.303 9.0575,-7.8237 6.6274,-7.8237 -2.43,0 -9.3888,3.5207 -15.4639,7.8237 -6.0751,4.303 -9.0574,7.8237 -6.6274,7.8237 2.43,0 9.3888,-3.5207 15.4639,-7.8237 z M -979.36649,999.8572 c -10.96255,-19.3927 -7.51122,-24.3419 4.62641,-6.6342 11.5283,16.8187 8.0662,3.3113 -4.2095,-16.4234 -4.49536,-7.2267 -6.85838,-8.3947 -6.95117,-3.4355 -0.10559,5.6376 -1.6112,6.001 -6.0315,1.4555 -4.45913,-4.5854 -5.89104,-4.083 -5.89104,2.067 0,4.4685 1.77419,8.1247 3.94263,8.1247 2.16849,0 2.91411,2.062 1.65703,4.5823 -3.28259,6.581 10.39789,29.0658 15.36861,25.2594 2.39868,-1.8369 1.33419,-8.1929 -2.51147,-14.9958 z m 1712.02924,4.3147 c 6.406,-4.5375 8.2619,-7.832 4.4182,-7.8436 -3.645,-0.011 -10.4867,3.5971 -15.2038,8.0177 -10.9127,10.2271 -3.7354,10.1112 10.7856,-0.1741 z M -924.18558,978.6597 c 0,-5.1841 -2.03748,-10.9858 -4.52774,-12.8928 -2.49022,-1.907 -4.24299,-1.4365 -3.89506,1.0455 2.9252,20.8644 -7.721,24.9173 -11.85419,4.5128 -1.52474,-7.5274 -5.04199,-13.7239 -7.81613,-13.77 -2.77409,-0.044 -2.06152,-2.5844 1.58355,-5.6407 4.84003,-4.0583 3.05267,-4.5662 -6.62739,-1.8833 -7.29014,2.0205 -13.6622,4.0372 -14.16014,4.4815 -0.49793,0.4445 3.98347,10.9658 9.95868,23.3812 10.44283,21.698 11.37729,22.3332 24.10122,16.3823 7.64395,-3.575 13.2372,-10.1735 13.2372,-15.6165 z m 1696.24453,2.8729 c 6.0632,-6.573 -8.3176,-0.4687 -15.3559,6.518 -8.0868,8.0275 -7.9458,8.1415 2.4693,1.9956 6.0751,-3.5849 11.874,-7.416 12.8866,-8.5136 z m 24.9982,-13.6055 c 3.737,-7.492 -4.3461,-5.6671 -13.8445,3.1258 -8.2743,7.6597 -8.2238,7.8293 1.4335,4.8137 5.5055,-1.7192 11.0904,-5.292 12.411,-7.9395 z m 48.1214,-24.9881 c 14.881,-8.7927 20.652,-18.1467 11.1955,-18.1467 -2.43,0 -4.4182,2.2225 -4.4182,4.9389 0,2.7164 -5.9647,7.5153 -13.2548,10.6642 -7.2902,3.1488 -13.2548,7.0851 -13.2548,8.7472 0,4.6587 2.8816,3.7528 19.7323,-6.2036 z m 28.8686,-18.1467 c 0,-3.0109 1.4911,-5.1827 3.3137,-4.8261 9.3373,1.8267 14.547,-1.3176 11.6861,-7.0531 -2.1548,-4.32 -0.7761,-5.2548 4.2356,-2.8719 9.2406,4.3936 38.8267,-12.4142 35.0788,-19.9281 -1.708,-3.4243 0.4494,-3.9949 5.7121,-1.5107 6.1202,2.8889 7.1296,2.3335 3.6534,-2.0103 -6.3002,-7.8727 -30.1922,2.673 -25.8371,11.4042 2.0294,4.0685 0,4.8824 -6.1355,2.4674 -6.0481,-2.3784 -11.9634,-0.1346 -17.3979,6.5988 -4.5288,5.6114 -10.3502,9.3285 -12.9364,8.2603 -2.5863,-1.0681 -5.8791,1.8572 -7.3172,6.5009 -1.4382,4.6437 -0.689,8.4431 1.6648,8.4431 2.3537,0 4.2796,-2.4635 4.2796,-5.4745 z m -1926.36235,-9.6492 c 0,-2.3413 -13.8478,-27.0091 -25.059,-44.6391 -0.7978,-1.2545 -2.5655,-0.8995 -3.9283,0.7891 -4.444,5.5063 17.6939,52.1585 23.4645,49.4477 3.0375,-1.4269 5.5228,-3.9459 5.5228,-5.5977 z m 10.5212,-39.6208 c -14.5064,-27.1609 -17.0443,-27.7881 -8.3713,-2.0687 3.6776,10.906 6.6866,20.76 6.6866,21.8978 0,1.1378 3.0106,2.0687 6.6901,2.0687 5.1404,0 3.9809,-5.0725 -5.0054,-21.8978 z m 8.3064,-7.9522 c -6.5355,-13.4065 -12.7422,-23.3106 -13.7926,-22.009 -2.0637,2.5569 20.271,46.3845 23.6376,46.3845 1.1208,0 -3.3095,-10.9689 -9.845,-24.3755 z m -82.6173,-78.9799 c -6.2543,-14.9858 -20.1573,-32.7438 -20.1573,-25.7465 0,10.0675 18.5832,46.9343 22.2446,44.1306 2.5524,-1.9546 1.7238,-9.2525 -2.0873,-18.3841 z m 28.4436,-3.9199 c 0,-6.1188 -18.6301,-35.6994 -20.7946,-33.0174 -2.8264,3.502 12.8298,36.2781 17.329,36.2781 1.9061,0 3.4656,-1.4673 3.4656,-3.2607 z m -2.7336,-29.586 c -6.4325,-12.0438 -12.5427,-21.8978 -13.5782,-21.8978 -2.2379,0 1.4803,8.2719 12.9189,28.7409 13.1622,23.5535 13.7326,17.6344 0.6593,-6.8431 z m 40.2888,8.3696 c 11.4872,-5.1277 14.3612,-7.9731 8.211,-8.1293 -6.3241,-0.1604 -10.3816,-4.7792 -12.2344,-13.9264 -2.7568,-13.6097 -9.0021,-16.6026 -21.8738,-10.4826 -5.9917,2.8489 -5.9411,5.2736 0.457,21.8978 3.9571,10.2819 7.3235,18.6571 7.4809,18.6118 0.1573,-0.044 8.2392,-3.6325 17.9593,-7.9713 z m -123.0688,-90.2653 c -13.7835,-25.8074 -17.663,-28.193 -11.4876,-7.0642 8.5677,29.3143 14.4907,40.0997 18.9721,34.5471 2.8266,-3.5024 0.2289,-13.0407 -7.4845,-27.4829 z m 22.8883,-14.2941 c -5.0393,-10.5827 -10.0799,-18.1043 -11.2013,-16.7148 -3.4366,4.2581 12.6902,41.8321 16.6522,38.7981 2.0413,-1.5632 -0.4118,-11.5006 -5.4509,-22.0833 z m 14.5036,4.4927 c -2.3374,-5.2691 -7.5877,-14.5073 -11.6672,-20.5292 -7.1212,-10.5119 -7.1654,-10.4026 -1.109,2.7372 11.575,25.1133 12.8065,27.3723 14.9224,27.3723 1.1571,0 0.1913,-4.3111 -2.1462,-9.5803 z m 27.5301,-4.526 c 5.1699,-2.4582 5.7154,-6.4462 2.463,-18.0063 -3.1383,-11.1547 -7.4484,-15.1576 -17.3249,-16.0901 -15.2995,-1.4444 -15.7015,0.097 -5.5674,21.3544 7.9766,16.7312 9.734,17.8273 20.4293,12.742 z m -115.7489,-85.573 c -5.1223,-9.9118 -9.3468,-14.2584 -9.3877,-9.6593 -0.089,10.0208 13.1077,34.6111 16.3913,30.5426 1.2703,-1.574 -1.8813,-10.9714 -7.0036,-20.8833 z m 25.0801,-12.547 c -2.7681,-7.5273 -6.8192,-13.6861 -9.0026,-13.6861 -3.9471,0 -1.5448,7.4531 6.6171,20.5292 6.8091,10.9088 7.8331,7.9713 2.3855,-6.8431 z m 13.9604,4.1059 c -0.054,-2.2582 -4.1963,-10.2646 -9.205,-17.792 l -9.1068,-13.6861 7.9485,17.7919 c 7.9972,17.901 10.5447,21.2653 10.3633,13.6862 z m 22.6491,-22.0546 c -4.7124,-10.4335 -18.1326,-13.8081 -18.1326,-4.5596 0,10.0744 9.1584,19.2745 15.9653,16.038 4.0762,-1.9381 4.7837,-5.6855 2.1673,-11.4784 z m -106.0186,-60.0622 c -6.7225,-15.1538 -17.8574,-31.9075 -18.0118,-27.1004 -0.273,8.5037 13.4016,36.6807 17.8015,36.6807 2.9214,0 2.9939,-3.3054 0.2103,-9.5803 z m 29.2498,-21.5474 c 0.8191,-3.0448 -2.7686,-11.4519 -7.9728,-18.6823 l -9.462,-13.1462 7.1077,14.8621 c 9.7337,20.3533 8.6851,26.2425 -1.8759,10.5351 -6.6181,-9.8433 -8.6895,-10.8221 -8.6895,-4.1059 0,4.85 2.1056,8.8182 4.679,8.8182 2.5735,0 3.5581,2.2472 2.1881,4.9939 -1.37,2.7465 0.8901,4.379 5.0226,3.6274 4.1324,-0.7514 8.1837,-3.8575 9.0028,-6.9023 z m 33.5926,-12.842 c 2.8388,-0.096 1.5767,-3.5422 -2.8047,-7.6588 -5.9815,-5.62 -6.5319,-8.2214 -2.2091,-10.4417 3.1663,-1.6263 -0.7047,-2.5829 -8.6024,-2.1257 -16.2117,0.9386 -16.0775,0.7189 -9.6022,15.7103 2.8532,6.6057 7.4185,9.7481 11.407,7.8518 3.6574,-1.739 8.9726,-3.2402 11.8114,-3.3359 z m -116.3444,-73.7393 c -3.2493,-7.5229 -7.6111,-13.6779 -9.693,-13.6779 -2.0818,0 -0.6051,7.6195 3.2816,16.9321 3.8866,9.3127 8.2485,15.4677 9.693,13.6779 1.4445,-1.7898 -0.031,-9.4093 -3.2816,-16.9321 z m 28.7223,-24.6268 c -3.7699,-9.0328 -7.8484,-16.4234 -9.0634,-16.4234 -1.215,0 0.8753,7.3906 4.6452,16.4234 3.7698,9.0329 7.8484,16.4234 9.0634,16.4234 1.215,0 -0.8753,-7.3905 -4.6452,-16.4234 z m 34.3428,0 c 2.6958,0 1.0639,-3.4768 -3.6263,-7.7262 -4.6903,-4.2494 -10.0408,-6.5676 -11.8901,-5.1514 -1.8494,1.4162 -3.3625,-0.4445 -3.3625,-4.1351 0,-3.6905 -1.1756,-5.2533 -2.6125,-3.4729 -5.2657,6.5245 3.3177,26.7962 10.0005,23.6187 3.6242,-1.7232 8.7952,-3.1331 11.4909,-3.1331 z m -111.6624,-71.1679 c -2.8238,-6.5376 -6.1049,-10.6838 -7.2915,-9.2136 -1.1865,1.4701 0.3906,7.7279 3.5045,13.906 7.3632,14.6089 10.4642,10.7665 3.787,-4.6924 z m 21.9478,-16.7556 c -2.5221,-5.8391 -5.5797,-10.6166 -6.7948,-10.6166 -1.215,0 -0.2209,4.603 2.2092,10.2291 2.43,5.626 2.9971,12.1797 1.26,14.5638 -1.737,2.3841 -0.6676,2.5585 2.3765,0.3876 4.0412,-2.8821 4.2973,-6.8122 0.9491,-14.5639 z m 44.3262,-13.3541 c 0,-0.8034 -4.7891,-2.5949 -10.6423,-3.9813 -7.2097,-1.7077 -9.9678,-0.3427 -8.5512,4.2313 1.6751,5.4087 19.1935,5.1806 19.1935,-0.2502 z m -112.215,-63.8201 c -8.0247,-14.1954 -9.5192,-9.542 -2.3019,7.1674 2.6269,6.0818 5.8121,9.7744 7.0781,8.2057 1.266,-1.5686 -0.8833,-8.4865 -4.7762,-15.3731 z m 18.619,-18.3196 c -2.7726,-7.5401 -5.8734,-12.6781 -6.8906,-11.4177 -2.0635,2.5568 6.8946,25.127 9.9729,25.127 1.0774,0 -0.3097,-6.1692 -3.0823,-13.7093 z m 13.1674,-2.4651 c -2.9662,-5.885 -6.0122,-9.9329 -6.7688,-8.9952 -2.619,3.2451 4.2122,19.6951 8.1788,19.6951 2.1906,0 1.5561,-4.8149 -1.41,-10.6999 z m 22.9912,-5.7234 c -3.6451,-2.9188 -8.6156,-5.3068 -11.0457,-5.3068 -2.43,0 -1.4359,2.388 2.2091,5.3068 3.6451,2.9187 8.6157,5.3067 11.0457,5.3067 2.43,0 1.4359,-2.388 -2.2091,-5.3067 z m -70.6922,-87.591296 c -2.6011,-6.0219 -5.7233,-10.9489 -6.9383,-10.9489 -1.2151,0 -0.081,4.927 2.52,10.9489 2.601,6.0219 5.7233,10.9489 6.9383,10.9489 1.215,0 0.081,-4.927 -2.52,-10.9489 z m 26.5095,-2.1515 c 0,-1.1833 -3.0855,-3.6186 -6.8568,-5.4118 -3.9319,-1.8694 -5.7054,-0.9517 -4.1575,2.1516 2.5946,5.2018 11.0143,7.694 11.0143,3.2602 z m -78.004,-77.4641996 c -1.439,-4.6462004 -3.5639,-7.2736004 -4.7221,-5.8386004 -1.1581,1.435 -0.7951,5.2365004 0.8066,8.4478004 4.3566,8.7342 6.903,7.0374 3.9155,-2.6092 z M -707.6021,1830.9465 c -3.48491,-5.2028 -3.82012,-8.344 -0.89037,-8.344 5.33969,0 11.5652,10.3862 8.50118,14.1827 -1.11208,1.3779 -4.53694,-1.2495 -7.61081,-5.8387 z m -13.34342,-19.616 c 0,-3.1886 1.98822,-4.275 4.41826,-2.4141 2.43005,1.8609 4.41827,4.4698 4.41827,5.7976 0,1.3277 -1.98822,2.4141 -4.41827,2.4141 -2.43004,0 -4.41826,-2.6089 -4.41826,-5.7976 z m -13.25479,-10.9489 c 0,-3.1886 1.98822,-4.275 4.41827,-2.4141 2.43004,1.8609 4.41826,4.4698 4.41826,5.7975 0,1.3278 -1.98822,2.4142 -4.41826,2.4142 -2.43005,0 -4.41827,-2.6089 -4.41827,-5.7976 z m -92.43468,-117.8338 c 0.21208,-6.3775 1.25894,-7.6746 2.66934,-3.3075 1.2763,3.9518 1.11936,8.6736 -0.3486,10.4927 -1.46819,1.8191 -2.5124,-1.4143 -2.32056,-7.1852 z m -39.41558,-67.9745 c 0,-7.5273 1.00286,-10.6067 2.22853,-6.843 1.22567,3.7637 1.22567,9.9224 0,13.6861 -1.22567,3.7637 -2.22853,0.6843 -2.22853,-6.8431 z m -79.36498,-188.8686 c 0.0901,-9.0328 1.08027,-12.0653 2.20047,-6.7389 1.12021,5.3265 1.04656,12.717 -0.16391,16.4234 -1.2103,3.7064 -2.12682,-0.6516 -2.03678,-9.6845 z m 447.5557,-8.285 c -2.3778,-4.7671 15.649,-15.8908 99.4475,-61.3655 27.9455,-15.1651 63.7334,-34.9197 79.5287,-43.8991 15.7953,-8.9794 65.5007,-36.6772 110.4565,-61.5505 44.9559,-24.8734 150.331397,-83.4902 234.167897,-130.2597 243.469603,-135.8231 543.571803,-302.7753 627.393303,-349.03 42.5257,-23.4667 104.1054,-57.6585 136.8438,-75.9816 54.21,-30.3404 79.5434,-40.9718 68.3844,-28.698 -2.3085,2.5391 -48.9322,29.3864 -103.6082,59.6605 -54.676,30.2741 -239.5803,133.2025 -410.8984,228.7298 -171.3181,95.5272 -369.145803,205.6821 -439.617103,244.7886 -70.471297,39.1065 -167.893897,93.2623 -216.494797,120.3462 -170.9076,95.2421 -183.356,101.7652 -185.6036,97.2593 z m 8.8714,-210.0685 c -7.2911,-3.9372 -15.874,-11.0663 -19.0731,-15.8425 -4.9904,-7.4505 -4.1054,-9.7947 6.231,-16.5052 10.5995,-6.8812 13.5376,-6.7617 24.4443,0.9942 11.4088,8.113 12.9688,8.1069 19.5733,-0.077 6.6029,-8.1815 6.6086,-10.2524 0.071,-25.9166 -10.1834,-24.4 -27.7387,-28.7122 -39.9075,-9.8028 -16.289,25.3117 -27.5885,19.5959 -42.6554,-21.5772 -7.2647,-19.852 -12.5563,-38.519 -11.7591,-41.4822 2.0881,-7.7618 60.2041,-38.5412 65.3422,-34.6066 2.3731,1.8172 6.4185,8.1749 8.9899,14.1281 4.1534,9.616 2.3068,12.1052 -16.5447,22.3028 -25.8952,14.0079 -24.1984,12.154 -20.8932,22.8261 2.5046,8.0874 3.9088,8.1135 16.1047,0.299 39.4489,-25.2765 95.339,39.245 72.0855,83.2181 -7.1386,13.4993 -31.1149,29.8667 -43.0879,29.4138 -3.1156,-0.1177 -11.6301,-3.4357 -18.9212,-7.3728 z m 260.9001,-79.0824 c 2.3085,-2.504 33.0265,-20.0344 68.2621,-38.9566 35.2357,-18.9221 219.145797,-118.1228 408.6893,-220.446 533.9251,-288.2344 536.9325,-289.8298 542.2055,-287.652 2.734,1.1292 -12.7682,11.3935 -34.4494,22.8096 -21.6812,11.416 -54.332,28.8956 -72.5573,38.8435 -18.2253,9.9479 -175.2946,94.9259 -349.0427,188.8401 -173.7482,93.9141 -330.8174032,178.9595 -349.042703,188.9899 -94.607297,52.0672 -208.827597,112.1242 -213.245397,112.1242 -3.0867,0 -3.4019,-1.7516 -0.8194,-4.5527 z m -407.2098,-73.1083 c -7.0103,-6.5822 -13.5745,-12.7409 -14.587,-13.6861 -1.0125,-0.9452 -0.688,-3.1472 0.7212,-4.8932 1.4092,-1.7461 7.44,0.7854 13.4018,5.6255 10.6961,8.6837 10.8109,8.5989 8.6662,-6.4056 -3.0941,-21.6461 6.0054,-9.1616 9.8652,13.535 3.5657,20.9675 -0.5322,22.2886 -18.0674,5.8244 z m 23.5504,-14.8855 c -11.0859,-23.2532 -8.9699,-27.5926 4.2573,-8.7309 11.2859,16.0937 11.3683,16.119 4.0995,1.259 l -7.4177,-15.1644 20.4083,-10.8392 c 25.7229,-13.662 33.1669,-13.6393 36.0686,0.1094 1.271,6.0219 4.0671,10.9489 6.2138,10.9489 2.1466,0 3.9029,2.5105 3.9029,5.5788 0,3.2237 -4.6839,4.1221 -11.0956,2.1282 -9.3757,-2.9157 -10.6905,-1.8711 -8.4822,6.7387 1.7922,6.9875 -0.7165,5.3925 -7.9832,-5.0755 -7.0805,-10.1998 -13.0623,-14.0926 -18.0274,-11.7318 -10.9759,5.2186 -9.0284,12.7084 2.5104,9.6545 9.8517,-2.6074 9.8617,-2.5478 1.1045,6.6369 -8.6358,9.0576 -8.5606,9.1887 3.3137,5.7765 6.7173,-1.9303 12.1502,-1.1619 12.1502,1.7183 0,4.6929 -4.1325,6.954 -26.6638,14.589 -4.0344,1.367 -9.8513,-4.1409 -14.3593,-13.5966 z m 48.6631,-31.199 c -1.4682,-1.819 -5.279,-2.0135 -8.4684,-0.4319 -3.5246,1.7476 -2.4777,3.0448 2.6694,3.3075 4.6576,0.2376 7.2671,-1.0562 5.799,-2.8753 z m 279.6862,32.0484 c 0.076,-2.2582 61.2141,-35.9207 135.8615,-74.8056 140.4454968,-73.1602 165.432397,-86.248 387.5634,-203.0021 146.7337,-77.1244 220.7359,-116.1132 383.9095,-202.2665 60.4874,-31.9364 111.0213,-56.7725 112.2975,-55.1913 1.2762,1.5813 1.4919,3.7302 0.4794,4.7755 -1.0126,1.0453 -59.4993,32.1048 -129.9706,69.0211 -70.4713,36.9162 -173.8586,91.2165 -229.7496,120.6674 -55.891,29.4508 -154.3078,81.1547 -218.704,114.8975 -64.396203,33.7429 -143.924903,75.663 -176.730503,93.1558 -109.867197,58.5844 -260.044097,136.8541 -262.582997,136.8541 -1.382,0 -2.4501,-1.8477 -2.3736,-4.1059 z m -262.5176,-31.2855 c -10.3201,-19.5157 -9.1787,-25.5191 3.6986,-19.4528 8.0582,3.7961 10.3,3.3789 8.7492,-1.6284 -1.1467,-3.7028 4.0566,-11.2275 11.5631,-16.7217 15.4924,-11.3393 23.4506,-7.6239 10.5045,4.9042 -8.0131,7.7543 -7.7342,8.0511 4.7408,5.0449 12.6174,-3.0406 12.8424,-2.7814 4.6784,5.3905 -7.6531,7.6604 -7.7571,8.5846 -0.9659,8.5846 9.8047,0 14.2442,-14.3171 7.5422,-24.323 -4.1428,-6.1851 -3.261,-9.0445 4.3453,-14.0884 7.9622,-5.2799 10.9371,-4.4742 17.9583,4.8638 14.0978,18.7496 10.4547,31.4758 -8.1533,28.4818 -3.0375,-0.4888 -5.5228,1.5879 -5.5228,4.6148 0,9.8299 -34.0866,18.0635 -45.2687,10.9346 -8.2199,-5.2403 -8.9949,-5.0848 -4.4367,0.8901 3.0375,3.9817 5.5228,9.2102 5.5228,11.619 0,8.8806 -8.0267,3.9892 -14.9558,-9.114 z m 26.3493,-18.1149 c -7.608,-9.0289 -7.7022,-8.9123 -2.1134,2.6186 3.2171,6.6377 6.8003,10.8902 7.9627,9.45 1.1624,-1.4403 -1.4698,-6.8711 -5.8493,-12.0686 z m 40.429,-26.4436 c -1.4681,-1.8191 -5.2789,-2.0135 -8.4683,-0.4319 -3.5246,1.7476 -2.4777,3.0448 2.6694,3.3075 4.6575,0.2375 7.2671,-1.0562 5.7989,-2.8753 z m 1577.72745,24.7961 c -0.9443,-12.2689 -0.1591,-23.5 1.7451,-24.9581 1.904,-1.4581 3.4619,8.5801 3.4619,22.307 0,30.9867 -2.912,32.4693 -5.207,2.6511 z M -334.12665,952.6803 c 2.3085,-2.7273 72.7908,-39.99 156.6274,-82.806 C 34.625547,761.5405 80.435947,738.1191 228.98085,662.054 c 71.6863,-36.7082 156.1856,-79.8978 187.7761,-95.9767 50.6547,-25.7822 242.7228,-124.4627 257.3638,-132.2279 3.0376,-1.6111 5.4889,-0.818 5.4474,1.7623 -0.08,4.9755 -9.1642,10.0483 -110.3811,61.638 -73.7067,37.568 -304.9477,155.9156 -466.1267,238.5606 -60.751103,31.1504 -157.179703,80.5508 -214.2857,109.7787 -57.106,29.228 -129.4671,66.3962 -160.8023,82.596 -55.6772,28.7841 -70.7679,34.7367 -62.099,24.4953 z m -421.1979,-23.271 c 0.94975,-3.5304 61.26429,-35.2102 134.0323,-70.3996 192.6613,-93.1678 669.308797,-324.0839 746.4439,-361.6213 331.8874,-161.5114 437.8552,-211.7191 441.2938,-209.0858 3.8593,2.9553 -29.3779,20.0381 -202.7076,104.1848 -68.2167,33.1173 -597.2646,289.6702 -742.2681,359.9505 -26.7304,12.9558 -118.1885,57.2871 -203.24,98.5141 -85.0516,41.227 -159.28362,77.1898 -164.96016,79.9172 -7.38009,3.546 -9.82891,3.1299 -8.59414,-1.4599 z m 371.6374,-63.0083 c 1.6187,-2.0057 31.2763,-17.6652 65.9057,-34.799 58.0396,-28.7166 264.188197,-131.512 745.5666,-371.7749 103.2672,-51.5421 190.506,-93.0332 193.8641,-92.2023 3.3581,0.8308 -80.1391,44.5124 -185.5494,97.0701 -105.4103,52.5577 -235.3959,117.3848 -288.8569,144.0602 -531.0479,264.9768 -540.5797,269.6023 -530.9301,257.6459 z m -321.50598,-136.1746 -6.92112,-13.0879 -24.85684,11.786 c -24.52405,11.6283 -24.94263,11.6441 -31.26057,1.181 -4.99679,-8.2752 -5.78307,-20.8284 -3.57879,-57.138 3.55838,-58.6151 4.83084,-63.8165 16.5398,-67.6105 12.24142,-3.9664 16.80305,1.0107 37.34466,40.7461 13.38044,25.883 18.71642,32.0652 25.8395,29.9373 5.89044,-1.7597 10.92734,1.1881 14.64984,8.5735 4.789,9.5015 4.5328,12.2882 -1.6439,17.8844 -6.6752,6.0479 -6.7007,7.2628 -0.2903,13.8546 10.0655,10.3505 8.7708,15.0091 -5.9373,21.362 -11.39914,4.9237 -13.79909,4.0199 -19.88481,-7.4885 z m -27.98382,-34.4136 c 6.93508,-3.4059 6.63999,-5.2902 -3.15482,-20.1444 l -10.80552,-16.387 -0.15906,20.5292 c -0.16347,21.1034 1.01444,22.4382 14.11927,16.0022 z m 240.0169,-11.6525 c 2.3218,-2.8768 117.539,-58.5248 256.0383,-123.6622 138.499297,-65.1374 346.2572,-162.826 461.6843,-217.0858 115.4271,-54.2597 224.5641,-105.8875 242.5266,-114.7283 17.9625,-8.8408 35.8565,-15.3106 39.7644,-14.3773 5.9982,1.4325 -45.2571,26.5796 -227.0627,111.4023 -14.5803,6.8025 -52.3564,24.6633 -83.947,39.6906 -79.4183,37.7784 -444.9916,210.094 -578.148,272.5142 -60.3968,28.3124 -110.997,51.4771 -112.4448,51.4771 -1.4479,0 -0.7329,-2.3538 1.5889,-5.2306 z m -370.55057,-63.9984 c -4.69449,-5.8167 -3.58749,-13.9551 1.38071,-10.1506 2.43004,1.8609 4.41826,0.9199 4.41826,-2.0911 0,-3.0109 -1.98822,-6.9969 -4.41826,-8.8578 -7.11468,-5.4483 -5.07093,-15.1679 2.43862,-11.5973 3.9319,1.8695 5.70539,0.9517 4.15749,-2.1515 -5.64839,-11.3241 5.90178,-4.8204 12.26421,6.9057 8.07217,14.8773 16.21675,8.1208 8.54912,-7.092 -5.79923,-11.5059 -1.38786,-14.5893 6.64065,-4.6415 3.57389,4.4282 4.70328,3.4644 4.19735,-3.5819 -0.81217,-11.3109 22.97448,-21.8749 29.90881,-13.2829 6.50332,8.0579 11.42324,6.3913 8.54717,-2.8953 -1.74632,-5.6386 2.12019,-10.6604 12.28886,-15.9607 17.13606,-8.9319 22.44853,-6.5489 10.18012,4.5665 -7.7973,7.0644 -7.4415,7.4441 4.7408,5.0587 12.5669,-2.4608 12.77752,-2.1861 4.59433,5.9918 -9.14921,9.1433 -4.52757,11.7491 6.08319,3.4298 5.17494,-4.0573 5.30832,-6.5185 0.7242,-13.3624 -12.537,-18.7173 7.06621,-26.8799 22.30586,-9.288 9.23943,10.6655 7.96255,22.3171 -2.44573,22.3171 -3.1283,0 -12.00097,3.9023 -19.71707,8.6717 -13.47601,8.3298 -14.35802,8.1688 -22.36515,-4.0834 l -8.33585,-12.7553 2.31919,15.0324 c 2.59573,16.8247 -1.7164,18.9142 -14.43495,6.9948 -9.74346,-9.1313 -22.3211,-10.787 -25.9948,-3.4219 -1.36179,2.7302 2.00024,3.7791 7.4712,2.3309 9.83734,-2.6039 9.84963,-2.5338 1.11066,6.346 -8.58508,8.7235 -8.49084,8.8739 3.31369,5.2873 7.09025,-2.1543 12.15023,-1.4306 12.15023,1.7377 0,8.2317 -18.63685,12.5305 -25.17509,5.807 -4.33042,-4.453 -5.75275,-3.6771 -5.75275,3.1382 0,13.1466 -12.30782,16.9434 -21.50244,6.6333 -7.38182,-8.2774 -7.89473,-8.0817 -7.56738,2.8878 0.35743,11.9765 -6.56704,18.9018 -12.07525,12.0769 z m 326.34387,-17.4746 c 2.3086,-2.5228 75.7732,-37.3047 163.2548,-77.293 248.9429,-113.7934 388.351597,-177.7127 510.3093,-233.9782 240.5061,-110.9582 313.8069,-143.9899 319.172,-143.8296 13.3641,0.3997 -0.9753,7.169 -423.001203,199.6981 -21.8704,9.9774 -90.4639,41.5518 -152.429997,70.1655 -408.0184,188.4078 -428.5437,197.5188 -417.3049,185.2372 z m -48.6009,-76.626 c 2.3086,-2.5138 37.9971,-19.57 79.3078,-37.9029 41.3108,-18.3328 147.6805,-65.812 236.3771,-105.5094 C -181.58615,342.9517 -15.569953,268.6659 98.642147,217.5694 212.85415,166.473 327.82835,115.0052 354.14025,103.1967 c 52.1861,-23.420696 53.2405,-23.771496 49.6175,-16.507996 -1.3612,2.729 -10.9226,8.6379 -21.2475,13.1307 -78.2508,34.050396 -435.736503,193.893396 -866.4548,387.419096 -93.2978,41.9196 -111.082,48.687 -102.0231,38.8228 z m -400.0736,-28.019 c 0,-2.8694 6.46171,-7.5523 14.35935,-10.4064 12.06676,-4.3609 679.94675,-287.546 862.66565,-365.7755 31.590597,-13.5252 97.201797,-41.423996 145.802697,-61.997296 271.216203,-114.8088 275.434703,-116.48 264.874803,-104.934 -4.3812,4.7903 -11.3755,7.8502 -233.947003,102.3497 C -7.6170532,89.263104 -211.40945,175.8538 -385.15755,249.7026 c -472.60282,200.8722 -597.08037,253.5569 -599.07561,253.5569 -0.99442,0 -1.80809,-2.3477 -1.80809,-5.2172 z m 353.461,-46.3373 c 0,-3.265 -22.9881,6.9409 395.4344,-175.5604 87.4816,-38.1565 209.756997,-91.6578 271.723197,-118.8919 61.9661,-27.2342 134.536003,-58.827096 161.266503,-70.206396 26.7305,-11.3794 73.9507,-31.9077 104.9338,-45.6186 30.983,-13.7109 56.3328,-22.8789 56.3328,-20.3735 0,2.5054 -18.391,12.4955 -40.8689,22.2002 -73.4243,31.7003 -347.075103,151.272596 -489.3226,213.810596 -76.5464,33.653 -161.0456,70.544 -187.7761,81.9799 -26.7305,11.4359 -97.1686,41.9767 -156.5291,67.8685 -104.2684,45.4796 -115.194,49.7279 -115.194,44.7916 z m -341.52979,-117.0511 -12.36928,-10.4365 10.52201,-8.5423 c 6.83407,-5.5483 12.71796,-6.8201 16.78749,-3.6285 8.32096,6.5258 24.96256,6.412 28.25726,-0.1933 4.9686,-9.9611 -14.63403,-28.0076 -26.4361,-24.3373 -12.83306,3.9908 -19.61924,-9.5561 -11.13349,-22.2251 2.91115,-4.3461 4.01033,-10.4735 2.44268,-13.6164 -4.85496,-9.7334 -18.84936,-6.2912 -21.28197,5.2347 -2.47259,11.7155 -22.36526,15.6454 -27.46296,5.4254 -4.9684,-9.9607 2.6166,-27.2875 15.58208,-35.595 16.3773,-10.4935 32.28318,-10.3353 49.1772,0.4894 11.17166,7.1582 13.17062,11.3033 11.64839,24.1545 -1.56914,13.2471 -0.099,15.9443 10.06246,18.4625 25.27047,6.2622 35.20445,40.9852 17.42823,60.9181 -13.13195,14.7252 -47.85039,16.8613 -63.224,3.8899 z M 1100.076,300.7047 c 0,-7.5273 1.0029,-10.6067 2.2286,-6.843 1.2256,3.7637 1.2256,9.9224 0,13.6861 -1.2257,3.7637 -2.2286,0.6843 -2.2286,-6.8431 z m -1829.05078,-13.774 c 4.8976,-6.0683 969.39753,-402.374 975.62863,-400.8784 6.9357,1.6648 -960.74311,403.727 -971.64946,403.7121 -3.44253,0 -5.23317,-1.2799 -3.97917,-2.8337 z M 1100.076,235.0113 c 0,-7.5274 1.0029,-10.6068 2.2286,-6.8431 1.2256,3.7637 1.2256,9.9225 0,13.6862 -1.2257,3.7637 -2.2286,0.6843 -2.2286,-6.8431 z m -2219.7408,-6.8367 c -8.4676,-16.0123 -5.7696,-22.5302 6.0749,-14.6759 6.5041,4.313 8.2556,3.5672 8.2556,-3.5156 0,-5.7419 2.3944,-7.8515 6.6274,-5.8388 3.645,1.7331 6.6274,0.6196 6.6274,-2.4746 0,-3.0942 1.7799,-4.2627 3.9553,-2.5969 2.1753,1.6659 5.051,-0.5091 6.3901,-4.8333 1.3393,-4.3241 6.5181,-7.481 11.5087,-7.0152 11.0937,1.0355 11.9002,7.7478 1.3417,11.1666 -5.284,1.711 -4.2349,2.7312 3.3137,3.2225 9.0616,0.5897 9.8553,1.762 4.4183,6.5262 -5.891,5.1622 -5.891,5.5553 0,3.5385 3.6451,-1.2478 6.6274,-8.21 6.6274,-15.4715 0,-10.4331 2.317,-13.2026 11.0456,-13.2026 6.0752,0 12.6357,-3.0794 14.5789,-6.8431 4.1997,-8.1337 20.7672,-9.2256 20.7672,-1.3686 0,3.011 -2.9823,5.4745 -6.6274,5.4745 -3.645,0 -6.6273,2.6348 -6.6273,5.8552 0,3.2203 4.4734,5.068 9.941,4.1058 7.3735,-1.2975 9.596,-4.8439 8.6049,-13.7303 -1.0831,-9.7109 1.7864,-13.0492 15.14534,-17.6196 14.31923,-4.8988 17.26391,-4.2548 22.44393,4.9086 3.48813,6.1705 8.78549,9.2048 12.76573,7.3124 4.82134,-2.2924 5.42973,-4.937 2.08825,-9.0773 -7.35681,-9.1154 -5.56697,-18.5231 4.12126,-21.6622 9.57332,-3.1019 12.35877,4.3872 3.3137,8.9095 -3.03756,1.5187 -0.55228,2.9934 5.52283,3.2773 8.80272,0.4111 9.69989,1.5936 4.41826,5.8228 -3.98214,3.1886 -4.52709,5.3402 -1.36533,5.3906 7.25244,0.1155 11.34203,-9.3458 5.85565,-13.5471 -7.14755,-5.4734 -5.23325,-12.7114 4.35977,-16.4839 9.57437,-3.7652 23.92179,9.574 21.19594,19.7065 -1.86618,6.9369 -59.12213,32.7757 -62.72778,28.3081 -1.34793,-1.6702 -5.38569,-0.016 -8.9727,3.6699 -3.58705,3.6887 -10.09683,5.7977 -14.46614,4.6868 -4.36931,-1.111 -10.08552,1.4537 -12.70271,5.6993 -2.6171,4.2455 -12.8889,7.9834 -22.8262,8.3062 -9.9372,0.323 -17.2652,2.1958 -16.2844,4.1622 0.9808,1.9664 -4.2068,6.6495 -11.5281,10.4071 -11.5819,5.9441 -14.5785,5.4932 -23.0636,-3.4706 -8.4021,-8.8761 -8.911,-8.9577 -3.6759,-0.5897 3.342,5.3419 4.7784,11.3209 3.1919,13.2865 -1.5864,1.9656 -5.851,-1.1733 -9.477,-6.9754 -6.4445,-10.3124 -6.5258,-10.314 -3.6217,-0.071 2.0535,7.2431 1.3747,9.2562 -2.1983,6.5201 -2.843,-2.177 -5.1691,-1.0857 -5.1691,2.425 0,3.5108 -2.8539,5.0263 -6.3419,3.3679 -3.4881,-1.6585 -7.058,-0.3542 -7.9331,2.8991 -0.8751,3.2529 -4.8765,-0.2984 -8.892,-7.8918 z m 142.46008,-53.3823 c 0,-3.0109 -3.97644,-5.4744 -8.83653,-5.4744 -4.86009,0 -8.83652,2.4635 -8.83652,5.4744 0,3.011 3.97643,5.4745 8.83652,5.4745 4.86009,0 8.83653,-2.4635 8.83653,-5.4745 z m 209.46918,39.1196 c 1.72092,-3.4501 5.40557,-6.2729 8.18815,-6.2729 2.78258,0 68.77352,-25.761 146.64644,-57.2468 577.126797,-233.345196 809.5561,-325.9837 814.6869,-324.7066 3.2681,0.8135 -29.5375,15.8484 -72.9014,33.411 -43.363803,17.5627 -129.54290315,52.471804 -191.509003,77.576004 -61.966097,25.1041 -184.241497,74.4312 -271.723097,109.6156 -87.4816,35.1845 -215.7217,86.981596 -284.9779,115.104696 -142.62901,57.9179 -152.91941,61.5594 -148.41009,52.519 z m -41.04605,-68.9723 c 1.10103,-1.3643 93.38749,-38.4407 205.08094,-82.391996 199.5941,-78.5402 325.5942,-128.1854 417.3648,-164.445704 199.405497,-78.7887 340.6903,-133.8935 343.2938,-133.8935 12.6757,0 -15.908,14.0494 -75.988903,37.35 -109.0348,42.2859 -328.159397,128.435504 -404.270997,158.940504 -37.6657,15.0961 -144.0353,56.9981 -236.377,93.1155 -92.3417,36.1174 -183.79971,71.967496 -203.24006,79.666896 -32.89984,13.0301 -50.60139,17.5299 -45.86258,11.6583 z m -380.49971,-29.6219 c 0,-2.6016 20.3792,-12.1934 45.2872,-21.314996 24.9079,-9.1217 107.916,-40.0653 184.46243,-68.7636 211.23724,-79.1957 486.79602,-182.224604 722.38582,-270.093304 116.6422,-43.5044 231.5967968,-86.6044 255.454697,-95.7778 23.858,-9.1734 44.5686,-15.2038 46.0236,-13.401 1.455,1.8028 1.817,4.0792 0.8045,5.0586 -1.0125,0.9793 -70.4345002,27.2493 -154.271,58.3777 -171.085297,63.5237 -256.964297,95.6127 -461.708397,172.5187 -77.7614,29.208804 -236.81883,88.693604 -353.46095,132.188504 -116.6421,43.4949 -227.5879,85.1242 -246.5462,92.509496 -39.1018,15.2323 -38.4317,15.0806 -38.4317,8.6977 z m 342.63622,-38.481496 c 2.30854,-2.6898 65.83211,-28.3334 141.16348,-56.9858 167.72535,-63.7945 774.876147,-296.960904 800.810047,-307.538004 10.327603,-4.2121 18.777603,-5.7474 18.777603,-3.4117 0,2.3357 -29.326203,15.4836 -65.169403,29.2176 -35.8431,13.734 -139.7275,53.7392 -230.854197,88.9006 -181.045,69.8563 -334.3298,128.666904 -368.9249,141.545004 -12.1502,4.523 -53.9028,20.5229 -92.7835,35.5555004 C -870.01707,91.649604 -854.6283,86.137704 -846.64508,76.836204 Z m -327.02252,-92.5518 c -5.0139,-6.2123 -1.9755,-29.8376 6.4776,-50.368 4.8601,-11.8039 8.8365,-26.2232 8.8365,-32.0429 0,-20.223804 -23.6151,-20.584004 -27.8697,-0.4254 -1.4895,7.0575 -6.0851,10.5703 -13.8288,10.5703 -25.3902,0 -16.9618,-34.147404 10.9896,-44.523704 24.1603,-8.969 48.1545,-1.2912 56.964,18.2276 6.1414,13.6071 5.8769,16.766904 -3.3804,40.376204 -7.5454,19.2432 -8.4203,24.8421 -3.518,22.5112 19.3431,-9.197 36.6589,-9.7264 42.3074,-1.2935 3.228,4.8194 5.0887,9.6306 4.1349,10.6918 -4.2013,4.6742 -78.9933,28.9028 -81.1131,26.2762 z m 240.6455,-54.7681 c 3.64507,-2.8002 116.97349,-45.108904 251.84095,-94.019504 134.8674,-48.9106 345.5588,-125.6072 468.203,-170.4368 204.8385968,-74.8739 239.973797,-86.7131 233.487397,-78.676 -1.2574,1.5579 -89.5674,34.5273 -196.244497,73.2654 -106.6771,38.7381 -316.2338,114.9202 -465.6816,169.2937 -274.40598,99.836904 -303.87914,110.002104 -291.60525,100.573204 z M -1277.3077,-136.467 c -6.6064,-15.2951 -5.9618,-18.952 2.6216,-14.8709 4.0583,1.9296 8.8773,0.5042 10.7089,-3.1681 2.594,-5.2005 4.8697,-5.0933 10.2943,0.485 5.8534,6.0191 6.9642,5.7446 6.9642,-1.7207 0,-10.1836 9.162,-11.7633 16.377,-2.8235 3.5739,4.4282 4.7033,3.5214 4.1974,-3.3699 -0.5028,-6.8482 5.9579,-12.1524 23.6082,-19.3824 27.5509,-11.2856 46.4084,-14.0619 35.3461,-5.2039 -5.4972,4.4018 -5.1205,5.3354 2.2091,5.4744 7.4569,0.1413 7.8018,1.0744 2.2092,5.9751 -5.891,5.1621 -5.891,5.542 0,3.4185 3.7191,-1.3406 6.1655,-7.5292 5.5749,-14.1029 -0.8118,-9.0356 1.3375,-11.714 9.4001,-11.714 11.1076,0 23.7518,14.0593 18.4983,20.5686 -1.7226,2.1344 -11.4499,6.9419 -21.6164,10.6834 -17.204,6.3314 -19.0441,5.9587 -26.5652,-5.3816 l -8.0808,-12.1843 2.8893,16.2747 c 2.8741,16.1892 2.841,16.2205 -6.3056,5.9642 -5.0572,-5.6708 -10.6739,-8.346 -12.4815,-5.9449 -1.8077,2.401 -0.789,5.4704 2.2637,6.8208 3.0527,1.3505 4.4232,4.7151 3.0456,7.477 -1.485,2.9773 -6.019,2.6914 -11.1363,-0.702 -6.5543,-4.3462 -8.3504,-4.0204 -7.4638,1.3539 0.6422,3.8926 -2.8112,7.1692 -7.6742,7.2812 -4.863,0.1122 -11.3172,2.0993 -14.3427,4.4162 -3.0255,2.3168 -8.9878,5.0924 -13.2495,6.168 -4.2617,1.0756 -11.0755,3.5905 -15.1417,5.5887 -4.9079,2.4118 -8.9922,-0.069 -12.1502,-7.3805 z m 304.88941,2.4392 c 1.63176,-1.995 195.39225,-71.2963 774.35974,-276.9612 94.3994,-33.5333 172.570197,-59.8111 173.712897,-58.3952 3.1138,3.8582 33.0189998,-6.9554 -753.772317,272.5613 -164.99469,58.6163 -200.18434,69.9891 -194.30032,62.7951 z m -40.13251,-59.534 c 0,-4.2088 3.4476,-5.433 466.12665,-165.5089 46.1708,-15.974 115.7585,-40.1105 154.6392,-53.6368 38.8807,-13.5262 124.374,-43.1169 189.9852,-65.757 65.6112,-22.6401 122.772497,-42.847 127.025097,-44.9042 4.2525,-2.0572 7.7319,-1.6098 7.7319,0.9942 0,2.604 -34.296697,16.6308 -76.214997,31.1709 -41.9183,14.54 -125.9205,43.665 -186.6716,64.7221 -60.7511,21.0572 -149.2268,51.7868 -196.6126,68.2881 -47.3859,16.5014 -116.9735,40.7101 -154.6392,53.7971 -37.6657,13.0872 -123.15907,42.8546 -189.98528,66.1499 -131.53857,45.8539 -141.38437,48.9657 -141.38437,44.6846 z m -360.0884,-35.4664 c 2.4301,-2.9365 163.4757,-57.7115 357.8792,-121.7223 194.40358,-64.0109 463.80715,-152.849 598.67455,-197.4182 284.1219,-93.8928 273.1529,-90.4839 267.3049,-83.0711 -2.4301,3.0803 -76.9882,29.4605 -165.6849,58.6227 -88.6966,29.1623 -237.8129,78.3843 -331.3696,109.3823 -93.55672,30.998 -226.76732,75.0372 -296.02358,97.865 -69.25627,22.8277 -188.54937,62.2657 -265.09577,87.6399 -156.3571,51.8307 -172.1048,56.4595 -165.6848,48.7017 z m 327.1723,-27.9048 c 2.3086,-2.595 12.1502,-7.2126 21.8704,-10.2614 9.7202,-3.0488 134.97793,-45.4327 278.35054,-94.1865 143.37261,-48.7537 285.53021,-96.9686 315.90571,-107.1443 30.3756,-10.1757 113.8807,-38.3997 185.567,-62.7202 71.6863,-24.3204 133.3211,-43.4505 136.9662,-42.5112 3.645,0.9393 -5.3019,5.593 -19.8822,10.3414 -14.5803,4.7486 -124.9264,42.082 -245.2136,82.9632 -120.2872,40.8812 -310.162,105.3704 -421.944,143.3094 -111.78203,37.9389 -213.04495,72.5681 -225.02875,76.9538 -25.1253,9.1949 -32.7001,10.1224 -26.5913,3.2558 z m -298.4536,-40.2305 c 0,-7.4997 2.0955,-9.9711 6.6274,-7.8163 3.6451,1.7331 6.6274,1.0532 6.6274,-1.5109 0,-6.4603 23.9807,-4.3994 25.6679,2.2059 0.7521,2.9444 -7.6978,8.219 -18.7776,11.7211 -18.9211,5.9807 -20.1451,5.7012 -20.1451,-4.5998 z m 46.8524,-13.0199 c -3.7319,-12.0499 -3.9863,-11.7394 9.4805,-11.5696 6.6826,0.084 20.8085,-2.876 31.3909,-6.5783 20.1102,-7.0357 34.1315,-4.6172 29.307,5.055 -1.5523,3.112 -5.1576,5.0935 -8.012,4.4033 -2.8543,-0.6902 -12.1484,1.4867 -20.6535,4.8376 -30.9053,12.1762 -38.7106,12.9004 -41.5129,3.852 z m -35.3015,-73.8446 c -15.742,-30.1245 -17.7535,-32.1167 -24.6353,-24.4 -15.8566,17.7804 -29.2617,1.4166 -14.8713,-18.1538 4.4404,-6.0389 10.6372,-14.8516 13.7706,-19.5838 8.8733,-13.4012 16.1064,-10.3286 28.073,11.9251 6.0717,11.291 17.5777,32.3717 25.5689,46.846 7.9913,14.4743 13.8149,27.0611 12.9414,27.9707 -0.8735,0.9097 -6.5646,3.1265 -12.6469,4.9262 -9.7311,2.8794 -13.1169,-0.666 -28.2004,-29.5304 z m 209.3622,-4.0193 c 0,-3.0892 8.4499,-7.9502 18.7776,-10.8021 10.3277,-2.852 116.20033,-36.6166 235.2725,-75.0325 209.41965,-67.5643 280.00925,-90.2793 444.03535,-142.8853 42.5258,-13.6388 111.8064,-35.9093 153.9569,-49.4901 42.1505,-13.5807 77.7259,-23.3433 79.0565,-21.6947 2.8672,3.5526 2.5371,3.684 -54.0738,21.5302 -54.6043,17.2136 -134.7494,42.8904 -342.4153,109.7027 -88.6966,28.5364 -215.94257,69.458 -282.76878,90.937 -184.73977,59.3782 -238.20757,76.8694 -245.33197,80.2569 -3.5799,1.7021 -6.509,0.5672 -6.509,-2.5221 z m -34.3444,-58.8395 c 2.9103,-3.6061 57.684,-21.2809 354.66843,-114.4478 121.50222,-38.1165 298.60692,-93.7835 393.56602,-123.7046 94.9591,-29.9212 174.4878,-54.3271 176.7305,-54.2356 14.1912,0.5794 -25.3756,14.8063 -143.9342,51.7541 -74.1164,23.0978 -177.5037,55.4749 -229.7497,71.9492 -325.73743,102.7119 -546.84105,171.7507 -550.04915,171.7507 -2.0385,0 -2.5928,-1.3797 -1.2319,-3.066 z m -279.3522,-13.3574 c -4.8153,-11.1484 1.2841,-16.1868 6.6274,-5.4744 5.4209,10.868 14.6924,5.7977 12.5132,-6.8431 -1.9688,-11.4207 -1.662,-11.62 4.2144,-2.7372 3.4859,5.2691 8.8474,9.5803 11.9146,9.5803 4.3089,0 4.3965,-1.7622 0.3849,-7.7513 -4.1456,-6.1891 -3.3721,-8.467 3.8377,-11.3023 4.9663,-1.953 11.0356,-2.0148 13.4874,-0.1374 2.4517,1.8775 4.4578,0.5031 4.4578,-3.0542 0,-4.7156 1.8629,-4.5521 6.8766,0.6036 5.6748,5.8355 6.6401,5.7361 5.5229,-0.5683 -0.781,-4.4069 2.8528,-8.4351 8.5872,-9.5191 6.7311,-1.2725 9.9411,0.8952 9.9411,6.7131 0,4.7258 2.1056,8.5924 4.679,8.5924 2.5735,0 3.3345,2.6955 1.6913,5.99 -1.6433,3.2945 -7.7253,4.8679 -13.5156,3.4964 -5.7903,-1.3715 -10.5277,-0.2853 -10.5277,2.4143 0,2.6993 -3.9317,2.3007 -8.7371,-0.8859 -7.4359,-4.9308 -8.2997,-4.3481 -5.8002,3.9133 2.6685,8.8198 2.1781,8.9564 -5.3658,1.4953 -4.5665,-4.5165 -6.8761,-5.2655 -5.1324,-1.6647 2.0996,4.3359 -2.4636,8.4857 -13.5112,12.287 -23.1075,7.9511 -26.7389,7.3695 -32.1455,-5.1479 z m 98.0854,-22.9927 c -7.49,-9.2805 -6.5811,-20.8029 1.6411,-20.8029 3.8186,0 10.1057,3.9188 13.9713,8.7085 5.9695,7.3965 6.0884,9.4458 0.789,13.6023 -8.2293,6.4546 -10.1151,6.2812 -16.4014,-1.5079 z m 149.3373,-19.2584 c 0,-2.5672 79.0317,-28.8627 175.6259,-58.4342 96.59427,-29.5716 302.80274,-92.8004 458.24105,-140.5084 155.4383,-47.70803 283.4658,-85.6877 284.5057,-84.39928 3.0546,3.78486 4.1074,3.4475 -348.4168,111.65398 -468.33665,143.7548 -553.33315,169.9668 -562.22395,173.384 -4.2525,1.6344 -7.7319,0.8712 -7.7319,-1.6961 z m -342.4153,-39.5056 c 7.119,-3.5612 414.0451,-123.541 605.30189,-178.4698 24.30044,-6.979 158.50515,-46.26159 298.23266,-87.29454 139.7276,-41.03294 261.0089,-75.76197 269.514,-77.17564 40.8226,-6.7852 -14.1691,11.82212 -163.4757,55.31464 -88.6966,25.83703 -177.17228,51.66096 -196.61264,57.38651 -19.44035,5.72555 -158.61561,46.40993 -309.27831,90.40983 -150.6628,43.9998 -323.8617,94.612 -384.8865,112.4716 -103.0011,30.1442 -142.5929,39.2619 -118.7954,27.3574 z m 309.4956,-16.3479 c -1.0461,-2.097 21.3417,-10.7222 49.7504,-19.1671 28.4088,-8.4448 111.2989,-33.2366 184.20022,-55.093 72.90132,-21.8563 192.1944,-57.5865 265.09573,-79.4003 72.9013,-21.8138 193.1472,-57.94698 267.2131,-80.29591 74.0659,-22.34894 138.683,-39.92122 143.5936,-39.04951 4.9105,0.87169 -14.9304,8.55293 -44.0909,17.0694 -29.1606,8.51647 -112.6657,33.45116 -185.5671,55.41041 -72.9013,21.95921 -221.02352,66.38291 -329.16048,98.71921 -108.13697,32.3363 -230.92967,69.3292 -272.87267,82.2065 -41.9431,12.8773 -77.1159,21.6974 -78.1619,19.6003 z m -386.603,-123.2284 c -7.4068,-13.3391 -13.467,-25.2646 -13.467,-26.5012 0,-4.6779 48.6912,-15.5165 53.4242,-11.8921 6.5842,5.042 -3.6468,13.179 -16.7128,13.2921 -5.3242,0.046 -11.1009,2.9319 -12.8372,6.4129 -2.9507,5.9157 3.9685,5.4648 28.8688,-1.881 3.1894,-0.941 6.6722,1.2273 7.7395,4.8182 1.1724,3.9444 -4.4241,8.0086 -14.1371,10.2663 -9.7291,2.2615 -14.4804,5.7162 -12.0327,8.7491 2.4477,3.0328 11.3114,2.9889 22.4473,-0.1113 11.6657,-3.2476 19.3635,-3.1961 21.0279,0.1408 3.4756,6.968 2.8802,7.3802 -21.2024,14.6768 -28.8422,8.7387 -28.1202,9.0396 -43.1185,-17.9707 z m 60.5389,-16.3471 c -6.6826,-13.0773 -12.1502,-25.3048 -12.1502,-27.1724 0,-6.0685 16.2129,-3.5929 32.8385,5.0143 15.7748,8.1668 16.1098,8.098 11.5852,-2.3773 -6.3359,-14.6688 -5.9169,-16.9831 3.0726,-16.9718 6.6098,0.01 32.0324,40.6458 32.0324,51.203 0,7.2197 -18.5915,3.1738 -36.0098,-7.8367 l -17.9848,-11.3684 7.1151,12.5865 c 9.128,16.1474 8.9804,21.1475 -0.6168,20.8994 -4.2526,-0.1099 -13.1996,-10.8994 -19.8822,-23.9766 z m 65.1574,-18.8168 c -16.657,-28.4399 -15.7419,-30.51378 16.0581,-36.39062 24.6571,-4.55679 34.3387,5.7647 10.5862,11.28592 -8.5727,1.9927 -15.5867,5.9784 -15.5867,8.8572 0,2.8787 3.9764,3.8363 8.8365,2.1279 4.8601,-1.7083 12.813,-4.5039 17.6731,-6.2122 5.911,-2.0778 8.8365,-0.4919 8.8365,4.7901 0,4.432 -5.9436,9.3692 -13.5476,11.2535 -7.4512,1.8465 -12.4334,5.5911 -11.0716,8.3213 1.4776,2.9623 9.8483,2.9117 20.7581,-0.1256 10.0552,-2.7993 19.3783,-3.7314 20.7181,-2.0713 4.5875,5.6841 -5.8159,12.6324 -27.0975,18.098 l -21.2862,5.4667 -14.877,-25.4008 z m 60.4075,-14.0148 c -7.7021,-13.2888 -14.0038,-25.36057 -14.0038,-26.82624 0,-1.46568 9.7755,-5.57057 21.7233,-9.12199 25.6905,-7.63635 42.4112,-0.54896 38.8223,16.45564 -1.5972,7.56779 1.3905,11.68019 11.7338,16.15029 10.6411,4.5987 12.4039,7.1259 7.5603,10.8381 -3.9652,3.039 -12.6681,1.6922 -23.3792,-3.6181 -18.3168,-9.0809 -25.5564,-6.6306 -17.213,5.8259 4.0392,6.0304 3.6174,8.4384 -1.9408,11.0812 -3.9059,1.8571 -7.596,3.3766 -8.2004,3.3766 -0.6043,0 -7.4004,-10.8727 -15.1025,-24.1614 z m 25.7606,-19.63425 c 5.1643,-4.13532 3.9452,-5.3253 -5.5229,-5.39063 -6.6826,-0.0461 -12.1502,2.37968 -12.1502,5.39063 0,6.92195 9.0286,6.92195 17.6731,0 z m 54.5851,17.96925 c -5.2138,-1.1867 -12.8295,-6.7438 -16.9236,-12.3492 -21.5085,-29.44808 13.597,-56.72644 45.6428,-35.46625 18.2295,12.094 23.5616,31.58479 10.8518,39.66735 -11.2451,7.1513 -28.4162,10.687 -39.571,8.1481 z m 27.2723,-18.20906 c 7.2132,-14.46124 -18.9156,-30.58937 -31.332,-19.33986 -6.8114,6.17117 -6.8037,7.27767 0.1104,15.8443 8.2737,10.25162 26.8165,12.32762 31.2218,3.49556 z m -444.1549,-16.18355 c 0,-3.01095 3.9764,-5.47445 8.8365,-5.47445 4.8601,0 8.8365,2.4635 8.8365,5.47445 0,3.01095 -3.9764,5.47445 -8.8365,5.47445 -4.8601,0 -8.8365,-2.4635 -8.8365,-5.47445 z m 22.0913,-5.47445 c 0,-3.01095 3.9764,-5.47446 8.8365,-5.47446 4.8601,0 8.8365,2.46351 8.8365,5.47446 0,3.01094 -3.9764,5.47445 -8.8365,5.47445 -4.8601,0 -8.8365,-2.46351 -8.8365,-5.47445 z m 22.0913,-5.47446 c 0,-3.01095 2.9823,-5.47445 6.6274,-5.47445 3.6451,0 6.6274,2.4635 6.6274,5.47445 0,3.01095 -2.9823,5.47446 -6.6274,5.47446 -3.6451,0 -6.6274,-2.46351 -6.6274,-5.47446 z m 17.673,-4.01901 c 0,-2.9801 11.2668,-8.22197 25.0374,-11.64859 31.2414,-7.77401 36.8183,-7.79182 36.8183,-0.11756 0,3.54513 -4.5748,5.02906 -10.8915,3.53289 -5.9903,-1.41887 -11.4579,-0.59003 -12.1502,1.84186 -1.9131,6.72039 -38.814,12.79677 -38.814,6.3914 z m 66.274,-16.96639 c 0,-2.50912 2.9823,-4.56204 6.6274,-4.56204 3.645,0 6.6274,2.05292 6.6274,4.56204 0,2.50913 -2.9824,4.56205 -6.6274,4.56205 -3.6451,0 -6.6274,-2.05292 -6.6274,-4.56205 z m 20.9867,-4.53803 c 3.0376,-1.51868 8.0081,-1.51868 11.0457,0 3.0375,1.51868 0.5523,2.76123 -5.5229,2.76123 -6.0751,0 -8.5603,-1.24255 -5.5228,-2.76123 z m 22.3122,-8.41817 c 4.1238,-5.10949 6.4802,-5.10949 10.6039,0 4.1237,5.10948 2.9455,6.56934 -5.3019,6.56934 -8.2475,0 -9.4257,-1.45986 -5.302,-6.56934 z m 25.1841,-2.91068 c 4.8601,-1.50451 9.9896,-4.99744 11.3989,-7.76205 1.4093,-2.76462 6.3799,-3.20893 11.0457,-0.98736 7.7308,3.68093 7.5035,4.37737 -2.5624,7.8514 -6.0751,2.09671 -15.0221,3.77198 -19.8822,3.72284 -8.8365,-0.0893 -8.8365,-0.0893 0,-2.82483 z m 37.5553,-12.41779 c 0,-3.01095 1.9882,-5.47445 4.4182,-5.47445 2.4301,0 4.4183,2.4635 4.4183,5.47445 0,3.01095 -1.9882,5.47445 -4.4183,5.47445 -2.43,0 -4.4182,-2.4635 -4.4182,-5.47445 z m 17.673,-4.37956 c 0,-2.40876 4.4735,-4.53496 9.9411,-4.7249 5.4676,-0.18991 13.4205,-2.17795 17.6731,-4.41782 4.3459,-2.28906 7.7319,-1.71828 7.7319,1.30336 0,2.95672 -6.2132,6.91554 -13.8071,8.79739 -18.0502,4.47304 -21.539,4.31786 -21.539,-0.95803 z m 49.012,-14.04429 c 17.6538,-11.41431 42.5391,-15.8481 46.327,-8.25403 2.2656,4.54201 0.3698,5.57328 -6.2829,3.41771 -5.24,-1.69788 -9.5274,-0.567 -9.5274,2.51307 0,3.08007 -4.9705,4.42281 -11.0456,2.98387 -6.0751,-1.43895 -11.0457,-0.4944 -11.0457,2.09903 0,2.59341 -4.4735,4.70012 -9.9411,4.68157 -9.5684,-0.0323 -9.5116,-0.31139 1.5157,-7.44122 z m 50.7402,-13.73856 c -1.3141,-2.63458 2.545,-4.79014 8.5758,-4.79014 6.0308,0 10.9651,2.15556 10.9651,4.79014 0,2.63458 -3.8591,4.79015 -8.5758,4.79015 -4.7166,0 -9.651,-2.15557 -10.9651,-4.79015 z m 28.3774,-4.67458 c 3.6451,-1.71925 7.7591,-5.26069 9.1424,-7.86988 1.3832,-2.60919 11.3243,-5.67787 22.0913,-6.8193 10.767,-1.14143 24.8035,-4.62176 31.1922,-7.73407 12.7452,-6.20892 23.795,-5.63381 29.1252,1.51593 1.8929,2.53902 -1.0319,3.25154 -6.4995,1.58338 -5.4676,-1.66816 -9.9411,-1.30572 -9.9411,0.80542 0,2.11114 -16.4028,8.05069 -36.4507,13.199 -36.0356,9.25397 -51.5182,11.38436 -38.6598,5.31952 z m 97.2018,-28.16215 c 0,-2.62909 9.444,-4.76173 20.9867,-4.73919 18.1724,0.0356 19.2093,0.58965 7.732,4.13246 -19.0584,5.88293 -28.7187,6.08702 -28.7187,0.60673 z m 46.6126,-11.1905 c 5.5084,-6.59024 32.9161,-11.69764 32.9161,-6.13388 0,2.37192 -6.2132,5.85226 -13.8071,7.7341 -19.3451,4.79393 -24.1192,4.39413 -19.109,-1.60022 z m 39.5435,-11.4016 c -1.5019,-3.01095 0.8661,-5.50809 5.2621,-5.54921 4.396,-0.0411 12.4662,-1.56018 17.9338,-3.37571 6.3445,-2.10673 9.9411,-0.8775 9.9411,3.39768 0,3.68426 -2.9187,5.31092 -6.4859,3.61481 -3.5673,-1.69611 -7.6611,-0.72793 -9.0973,2.15152 -3.4218,6.8601 -14.0852,6.71485 -17.5538,-0.23909 z m 37.5552,-10.94891 c 0,-3.01094 3.9765,-5.47445 8.8365,-5.47445 4.8601,0 8.8366,2.46351 8.8366,5.47445 0,3.01095 -3.9765,5.47446 -8.8366,5.47446 -4.86,0 -8.8365,-2.46351 -8.8365,-5.47446 z m 22.0913,-4.29358 c 0,-5.71468 35.034,-14.34139 38.8815,-9.57411 3.8083,4.71868 -0.2081,6.91356 -20.1039,10.98625 -11.2066,2.29404 -18.7776,1.72467 -18.7776,-1.41214 z m 44.1827,-11.69097 c 0,-2.76962 14.4145,-9.02947 32.0324,-13.9108 17.6178,-4.88133 35.5117,-10.17181 39.7643,-11.75661 4.7724,-1.77854 7.732,0.0328 7.732,4.73284 0,7.87378 -50.6866,22.92815 -58.0953,17.2548 -2.0682,-1.58381 -3.7604,-0.27076 -3.7604,2.91788 0,3.18865 -3.9764,5.79754 -8.8365,5.79754 -4.8601,0 -8.8365,-2.26605 -8.8365,-5.03565 z m 83.9469,-22.33661 c 0,-3.01095 2.9824,-5.47446 6.6274,-5.47446 3.6451,0 6.62743,2.46351 6.62743,5.47446 0,3.01095 -2.98233,5.47445 -6.62743,5.47445 -3.645,0 -6.6274,-2.4635 -6.6274,-5.47445 z m 48.60093,-13.78324 c 25.60232,-10.83752 35.14621,-12.70651 41.97349,-8.21974 7.70734,5.06512 7.2839,5.42955 -3.3137,2.85189 -7.52253,-1.82971 -12.15022,-0.58733 -12.15022,3.26192 0,3.47111 -3.80952,4.9829 -8.62467,3.42268 -4.74358,-1.537 -9.21707,-0.88326 -9.94109,1.45276 -0.72402,2.33603 -10.2634,5.8246 -21.1986,7.75237 -16.81308,2.96401 -14.76703,1.33981 13.25479,-10.52188 z m 53.01914,-14.22752 c 0,-3.41772 3.89607,-4.85052 8.83652,-3.24972 4.86009,1.5747 8.83653,0.9719 8.83653,-1.3396 0,-2.3115 5.4676,-2.8141 12.15022,-1.1167 l 12.15022,3.086 -13.25479,3.7188 c -20.75576,5.82321 -28.7187,5.51855 -28.7187,-1.09878 z m 42.21318,-9.82984 c -1.37001,-2.7467 0.44333,-4.4603 4.02963,-3.8081 9.46052,1.7204 13.93723,8.80202 5.56432,8.80202 -3.90663,0 -8.22393,-2.2473 -9.59395,-4.99392 z m 21.85162,-5.955 c 1.50186,-3.011 6.70705,-5.4745 11.56714,-5.4745 4.86009,0 7.60776,2.4635 6.10591,5.4745 -1.50186,3.0109 -6.70706,5.4744 -11.56714,5.4744 -4.86009,0 -7.60777,-2.4635 -6.10591,-5.4744 z m 24.30044,-5.1056 c 0,-7.5618 16.29535,-12.5974 27.06287,-8.363 6.95766,2.7362 8.48656,1.8818 5.90258,-3.2986 -2.4657,-4.9434 -1.37496,-5.987 3.72349,-3.5628 3.96588,1.8856 8.50962,0.8243 10.09719,-2.3585 1.60621,-3.2202 8.62511,-4.3647 15.82502,-2.5805 7.8794,1.9526 11.89918,1.1224 10.28032,-2.123 -1.47848,-2.9642 0.2651,-3.9393 3.92899,-2.1973 3.62297,1.7226 17.80144,0.2474 31.50769,-3.2782 13.70629,-3.5256 25.74419,-5.3896 26.75099,-4.1422 3.1688,3.9264 -112.74385,32.3682 -117.39584,28.8058 -2.4357,-1.8652 -4.42851,-0.7823 -4.42851,2.4063 0,3.1887 -2.98233,5.7976 -6.62739,5.7976 -3.64507,0 -6.6274,-2.2975 -6.6274,-5.1056 z m -1077.03101,-27.7412 c 0,-10.5383 0.9093,-14.8494 2.0206,-9.5803 1.1113,5.2692 1.1113,13.8915 0,19.1606 -1.1113,5.2692 -2.0206,0.9581 -2.0206,-9.5803 z m 1219.79725,-9.0114 c 1.57,-1.9454 12.3395,-5.5283 23.9323,-7.9622 11.5927,-2.4338 26.0481,-5.9574 32.1233,-7.83 6.0751,-1.8727 18.9985,-4.3572 28.7187,-5.5212 9.7201,-1.164 -3.2033,3.8774 -28.7187,11.2031 -48.147,13.8234 -60.9102,16.1254 -56.0556,10.1103 z m 113.493,-30.2541 c 6.0751,-3.4322 12.5678,-5.8428 14.4284,-5.3567 1.8605,0.486 21.6496,-4.0562 43.9757,-10.0938 22.3262,-6.0375 43.6685,-10.735 47.4273,-10.4388 7.0879,0.5585 -72.7024,23.5006 -100.8684,29.0026 -14.6624,2.8642 -15.0798,2.6023 -4.963,-3.1133 z m 986.377,-46.6249 c 4.2526,-1.377 11.2113,-1.377 15.4639,0 4.2526,1.3769 0.7732,2.5036 -7.7319,2.5036 -8.5052,0 -11.9846,-1.1267 -7.732,-2.5036 z"
       id="path3575"
       inkscape:connector-curvature="0" />
  </g>
</svg>
