<?xml version="1.0" encoding="UTF-8" standalone="no"?>
<svg
   xmlns:dc="http://purl.org/dc/elements/1.1/"
   xmlns:cc="http://creativecommons.org/ns#"
   xmlns:rdf="http://www.w3.org/1999/02/22-rdf-syntax-ns#"
   xmlns:svg="http://www.w3.org/2000/svg"
   xmlns="http://www.w3.org/2000/svg"
   viewBox="0 0 94.478828 100"
   height="100"
   width="94.478828"
   version="1.1"
   id="svg2">
  <metadata
     id="metadata8">
    <rdf:RDF>
      <cc:Work
         rdf:about="">
        <dc:format>image/svg+xml</dc:format>
        <dc:type
           rdf:resource="http://purl.org/dc/dcmitype/StillImage" />
        <dc:title></dc:title>
      </cc:Work>
    </rdf:RDF>
  </metadata>
  <defs
     id="defs6" />
  <path
     id="path4138"
     d="M 18.256815,95.64704 C 16.622525,92.909163 11.846169,84.752913 7.6426889,77.52204 L 0,64.375 l 5.4551894,-0.380989 5.4551896,-0.380989 0,-31.806511 0,-31.806511 9.375,0 9.375,0 0,31.875 0,31.875 6.25,0 c 3.4375,0 6.25,0.191626 6.25,0.425836 0,0.342073 -15.289943,27.028574 -19.809151,34.574164 -0.893856,1.49245 -1.729235,0.85935 -4.094413,-3.10296 z m 47.653564,-27.456715 0,-31.809676 -6.09562,-0.377824 L 53.719139,35.625 63.471528,18.947399 C 68.83534,9.774718 73.478769,2.014943 73.790258,1.7034546 74.101746,1.3919661 77.026889,5.803137 80.290575,11.506056 83.554263,17.208975 88.081764,24.96875 90.351691,28.75 l 4.12714,6.875 -5.534226,0.380989 -5.534226,0.380988 0,31.806512 0,31.806511 -8.75,0 -8.75,0 0,-31.809675 z"
     style="fill:#085b9e;fill-opacity:1" />
</svg>
