<?xml version="1.0" encoding="UTF-8" standalone="no"?>
<svg
   xmlns:dc="http://purl.org/dc/elements/1.1/"
   xmlns:cc="http://creativecommons.org/ns#"
   xmlns:rdf="http://www.w3.org/1999/02/22-rdf-syntax-ns#"
   xmlns:svg="http://www.w3.org/2000/svg"
   xmlns="http://www.w3.org/2000/svg"
   viewBox="0 0 163.59843 207.16287"
   height="1000"
   width="1000"
   version="1.1"
   id="svg3400">
  <metadata
     id="metadata3406">
    <rdf:RDF>
      <cc:Work
         rdf:about="">
        <dc:format>image/svg+xml</dc:format>
        <dc:type
           rdf:resource="http://purl.org/dc/dcmitype/StillImage" />
        <dc:title></dc:title>
      </cc:Work>
    </rdf:RDF>
  </metadata>
  <defs
     id="defs3404" />
  <path
     id="path3410"
     d="M 48.125,205.11374 C 36.94635,202.06556 29.349816,198.76014 20.472996,193.0817 12.332365,187.8742 0,176.60726 0,174.37741 c 0,-3.78467 41.209425,-43.44434 46.273346,-44.53315 2.506903,-0.53901 19.85393,6.83109 30.601654,13.0015 4.8125,2.76291 10.29688,5.82535 12.1875,6.80541 3.2911,1.70604 4.047244,3.38888 3.655044,8.13453 -0.0982,1.18839 1.21891,4.22001 2.92694,6.73694 1.70804,2.51692 3.10552,5.04578 3.10552,5.6197 0,0.5739 1.687496,1.9161 3.749996,2.98266 4.64257,2.40076 4.71743,4.48214 0.625,17.37646 -1.71875,5.41539 -3.125,10.58526 -3.125,11.4886 0,2.8473 -8.80908,4.53548 -26.25,5.03058 -13.790647,0.39148 -18.474294,0.043 -25.625,-1.9069 z m 61.30928,-6.69248 c 0.3332,-0.8683 2.42492,-2.37879 4.64827,-3.35665 2.22335,-0.97785 7.28229,-5.00912 11.24209,-8.95838 6.3011,-6.28435 12.53198,-9.57434 13.68021,-7.22335 0.65894,1.34916 -13.16374,12.42982 -20.99998,16.83421 -8.3661,4.70218 -9.47109,5.05083 -8.57059,2.70417 z m 40.76517,-35.7971 c -0.92155,-0.57004 -2.3278,-2.31493 -3.125,-3.87755 -0.7972,-1.56261 -1.7307,-2.724 -2.07445,-2.58086 -0.34375,0.14314 -2.27216,-0.59431 -4.28538,-1.63877 -2.0132,-1.04447 -4.12257,-1.61338 -4.6875,-1.26423 C 135.46221,153.61189 135,153.26875 135,152.5 c 0,-0.76865 -0.64941,-0.99619 -1.44314,-0.50564 -0.81994,0.50675 -1.10647,0.34718 -0.66352,-0.36952 1.23381,-1.99634 -7.7003,-8.83509 -10.25359,-7.84877 -0.26688,0.10313 -0.92495,-0.52401 -1.46238,-1.39357 -0.80002,-1.29447 -9.30001,-4.18723 -15.73877,-5.35628 -0.79002,-0.14343 -2.19627,-0.86897 -3.125,-1.61228 -0.92873,-0.74332 -3.500406,-2.27155 -5.714846,-3.39607 -2.21443,-1.12452 -5.026934,-3.08888 -6.250004,-4.36527 -1.22306,-1.27639 -4.283748,-2.9852 -6.801523,-3.79737 C 78.472679,122.2183 72.5,116.92286 72.5,114.06063 72.5,111.6196 81.15727,103.75 83.842621,103.75 c 1.159353,0 2.801509,1.68374 3.657379,3.75 0.85432,2.0625 2.04756,3.75 2.65165,3.75 1.76762,0 1.26306,-7.30564 -0.77702,-11.250723 l -1.87538,-3.62658 11.562884,-8.025616 c 6.359576,-4.41409 19.433856,-12.561491 29.053966,-18.105335 16.51415,-9.516727 17.61936,-9.96363 19.78769,-8.001326 5.4779,4.957429 16.09958,32.647971 15.68273,40.88458 -0.10625,2.09905 -0.21821,2.14916 -0.69818,0.3125 -0.3144,-1.20312 -0.81733,-2.1875 -1.11761,-2.1875 -1.57819,0 -11.77073,10.85127 -11.77073,12.53146 0,1.0827 -0.63299,2.60152 -1.40663,3.37517 -2.24886,2.24886 -0.16462,10.07524 3.28508,12.33557 1.65639,1.08531 3.5508,1.64005 4.20981,1.23276 0.65901,-0.4073 2.36566,1.14844 3.79255,3.4572 2.46123,3.98234 2.49683,4.51189 0.69379,10.32029 -3.11143,10.02331 -8.43504,19.32179 -10.37515,18.12171 z M 12.5,75.903132 c 0,-61.646323 0.240667,-70.690468 1.94588,-73.125 C 16.371595,0.02879 16.72753,0 48.792064,0 l 32.400303,0 1.968344,3.004073 c 1.564856,2.388272 1.925669,6.295866 1.760161,19.062499 L 84.712689,38.125 105.07936,38.469534 c 12.4293,0.21026 21.01049,0.878852 22.01865,1.715555 1.09006,0.904671 1.65199,4.439609 1.65199,10.392323 0,8.409695 -0.21186,9.11783 -3.125,10.445146 l -3.125,1.423845 -0.0191,-7.785702 c -0.01,-4.282135 -0.47242,-8.499856 -1.02642,-9.372712 -0.77586,-1.222405 -7.4484,-1.509585 -29.04336,-1.25 L 64.375,44.375 l -0.380488,5.23299 -0.380487,5.23299 4.755487,0.39201 C 72.504164,55.573822 73.125,56.032974 73.125,58.75 c 0,2.708807 -0.624289,3.176669 -4.6875,3.512956 -4.432946,0.366889 -4.6875,0.621443 -4.6875,4.6875 0,4.080432 0.222959,4.299544 4.375,4.299544 4.027777,0 4.375,0.297619 4.375,3.75 0,3.452381 -0.347223,3.75 -4.375,3.75 -4.027778,0 -4.375,0.297619 -4.375,3.750001 0,3.45238 0.347222,3.75 4.375,3.75 4.027777,0 4.375,0.29762 4.375,3.75 0,3.45238 -0.347223,3.75 -4.375,3.75 -3.98902,0 -4.375,0.31815 -4.375,3.606236 0,2.4673 -0.986951,4.252913 -3.125,5.653813 l -3.125,2.04758 0,-31.189528 C 57.5,37.129404 56.919043,38.75 70.089286,38.75 l 8.660714,0 0,-14.181265 c 0,-12.15109 -0.327251,-14.477424 -2.285926,-16.25 C 74.492609,6.534583 70.633375,6.25 48.409954,6.25 23.198855,6.25 22.599691,6.31006 20.69588,9.028133 19.625646,10.556106 18.75,13.931106 18.75,16.528132 c 0,4.563087 0.147116,4.721868 4.375,4.721868 4.006802,0 4.375,0.308932 4.375,3.670802 0,3.227735 -0.490344,3.718079 -4.0625,4.0625 -3.734915,0.360113 -4.0625,0.744482 -4.0625,4.766698 0,3.843509 0.4176,4.42305 3.4375,4.770527 2.87893,0.331258 3.4375,0.991387 3.4375,4.0625 0,3.257936 -0.427134,3.666973 -3.829198,3.666973 -3.567136,0 -3.802391,0.278029 -3.4375,4.0625 0.326384,3.385104 0.964879,4.128451 3.829198,4.458027 2.87893,0.331258 3.4375,0.991387 3.4375,4.0625 0,3.257154 -0.427531,3.666973 -3.825456,3.666973 -3.656165,0 -3.808289,0.207441 -3.4375,4.6875 0.336816,4.069604 0.84108,4.739637 3.825456,5.083027 2.87893,0.331258 3.4375,0.991387 3.4375,4.0625 C 26.25,79.590963 25.822866,80 22.420802,80 c -3.567136,0 -3.802391,0.278029 -3.4375,4.062501 0.326384,3.3851 0.964879,4.12845 3.829198,4.45803 2.670496,0.30727 3.4375,1.05575 3.4375,3.35447 0,2.29872 -0.767004,3.0472 -3.4375,3.354466 -2.898216,0.33348 -3.4375,0.98384 -3.4375,4.14553 0,3.161693 0.539284,3.812053 3.4375,4.145533 2.87893,0.33126 3.4375,0.99138 3.4375,4.0625 0,3.24108 -0.435535,3.66697 -3.75,3.66697 l -3.75,0 0,15.43126 c 0,13.36208 -0.306523,15.70866 -2.285926,17.5 -1.257259,1.13781 -2.663509,2.06874 -3.125,2.06874 C 12.877584,146.25 12.5,114.59391 12.5,75.903132 Z M 31.702033,109.375 c -1.477398,-3.85004 0.536983,-5.625 6.383736,-5.625 5.460257,0 5.664231,0.13504 5.664231,3.75 0,3.61496 -0.203974,3.75 -5.664231,3.75 -3.881759,0 -5.890652,-0.59004 -6.383736,-1.875 z m 0.02298,-16.190139 c -1.19718,-3.11978 0.722503,-4.43486 6.473758,-4.43486 5.087978,0 5.551229,0.26078 5.551229,3.125 0,2.87358 -0.455717,3.125 -5.664231,3.125 -3.79874,0 -5.893632,-0.59781 -6.360767,-1.81514 z M 78.75,87.460771 c 0,-0.66593 0.84375,-1.21077 1.875,-1.21077 1.03125,0 1.875,0.22107 1.875,0.49126 0,0.2702 -0.84375,0.81504 -1.875,1.21077 -1.03125,0.39573 -1.875,0.17466 -1.875,-0.49126 z M 31.725002,76.934859 C 30.527833,73.815081 32.447516,72.5 38.198771,72.5 c 5.087978,0 5.551229,0.260783 5.551229,3.125 0,2.873577 -0.455717,3.125 -5.664231,3.125 -3.79874,0 -5.893632,-0.597809 -6.360767,-1.815141 z m 46.70761,0.252641 c -1.394901,-4.145794 0.565316,-6.070998 5.792395,-5.688931 4.578453,0.334655 5.193883,0.75792 5.545523,3.813931 0.37943,3.297637 0.16752,3.4375 -5.208335,3.4375 -3.369371,0 -5.813489,-0.623032 -6.129583,-1.5625 z M 31.729827,60.697431 C 30.217637,56.756729 32.20301,55 38.168797,55 c 5.532289,0 5.732464,0.128576 5.35173,3.4375 -0.354076,3.077251 -0.953473,3.477841 -5.719463,3.822431 -3.920183,0.283437 -5.520976,-0.128545 -6.071236,-1.5625 z M 78.44287,60.9375 C 77.233599,57.649159 79.035356,56.25 84.479166,56.25 89.53472,56.25 90,56.513365 90,59.375 90,62.234095 89.53275,62.5 84.508736,62.5 81.255512,62.5 78.783285,61.863181 78.44287,60.9375 Z M 31.729827,44.447431 C 30.217637,40.506729 32.20301,38.75 38.168797,38.75 c 5.532289,0 5.732464,0.128576 5.35173,3.4375 -0.354076,3.077251 -0.953473,3.477841 -5.719463,3.822431 -3.920183,0.283437 -5.520976,-0.128545 -6.071236,-1.5625 z M 31.702037,26.875 c -1.477398,-3.850038 0.536983,-5.625 6.383736,-5.625 5.460257,0 5.664231,0.135041 5.664231,3.75 0,3.614959 -0.203974,3.75 -5.664231,3.75 -3.881759,0 -5.890652,-0.590043 -6.383736,-1.875 z"
     style="fill:#085b9e" />
</svg>
