<?xml version="1.0" encoding="UTF-8" standalone="no"?>
<!-- Created with Inkscape (http://www.inkscape.org/) -->

<svg
   xmlns:dc="http://purl.org/dc/elements/1.1/"
   xmlns:cc="http://creativecommons.org/ns#"
   xmlns:rdf="http://www.w3.org/1999/02/22-rdf-syntax-ns#"
   xmlns:svg="http://www.w3.org/2000/svg"
   xmlns="http://www.w3.org/2000/svg"
   xmlns:sodipodi="http://sodipodi.sourceforge.net/DTD/sodipodi-0.dtd"
   xmlns:inkscape="http://www.inkscape.org/namespaces/inkscape"
   width="210"
   height="210"
   viewBox="0 0 210 210"
   id="svg3334"
   version="1.1"
   inkscape:version="0.91 r13725"
   sodipodi:docname="tmbr-icon.svg">
  <defs
     id="defs3336" />
  <sodipodi:namedview
     id="base"
     pagecolor="#ffffff"
     bordercolor="#666666"
     borderopacity="1.0"
     inkscape:pageopacity="0.0"
     inkscape:pageshadow="2"
     inkscape:zoom="1.4"
     inkscape:cx="99.248916"
     inkscape:cy="189.42867"
     inkscape:document-units="px"
     inkscape:current-layer="layer1"
     showgrid="false"
     units="px"
     inkscape:window-width="1360"
     inkscape:window-height="717"
     inkscape:window-x="0"
     inkscape:window-y="0"
     inkscape:window-maximized="1" />
  <metadata
     id="metadata3339">
    <rdf:RDF>
      <cc:Work
         rdf:about="">
        <dc:format>image/svg+xml</dc:format>
        <dc:type
           rdf:resource="http://purl.org/dc/dcmitype/StillImage" />
        <dc:title></dc:title>
      </cc:Work>
    </rdf:RDF>
  </metadata>
  <g
     inkscape:label="Capa 1"
     inkscape:groupmode="layer"
     id="layer1"
     transform="translate(0,-842.36216)">
    <path
       style="fill:#085b9e;fill-opacity:1"
       d="m 72.86352,1049.0773 c -10.26895,-2.6914 -20.01523,-6.9984 -28.30047,-12.5064 -7.86825,-5.2308 -19.99162,-16.3097 -19.99162,-18.2694 0,-2.5905 35.85509,-37.80204 43.79532,-43.00914 1.9286,-1.2648 2.96711,-1.3084 6.5,-0.2732 9.43616,2.7651 39.97606,18.3095 41.88871,21.3209 0.43194,0.68 0.79223,2.7057 0.80065,4.50154 0.0202,4.3007 5.22916,13.3979 9.56532,16.7052 2.09476,1.5978 3.45,3.4977 3.45,4.8366 0,3.9545 -6.62721,24.905 -8.14719,25.7556 -5.74328,3.2141 -38.51025,3.8344 -49.56072,0.9383 z m 60.70791,-5.9151 c 0,-0.5028 2.20777,-2.2726 4.90615,-3.933 2.69838,-1.6603 7.84599,-5.683 11.43914,-8.9392 6.32512,-5.7321 12.07412,-9.1274 13.32928,-7.8723 0.9671,0.9671 -1.57464,3.4957 -9.6558,9.6059 -6.91477,5.2282 -17.89414,12.0529 -19.3905,12.0529 -0.34555,0 -0.62827,-0.4114 -0.62827,-0.9143 z m 38.9431,-39.2516 c -1.76649,-2.6948 -3.77987,-4.09624 -8.13775,-5.66414 -3.73028,-1.3422 -6.9002,-3.3474 -8.90936,-5.6357 -1.71535,-1.9536 -4.30619,-3.8417 -5.75741,-4.1957 -1.45122,-0.3539 -3.64675,-1.4238 -4.87895,-2.3774 -1.23221,-0.9536 -5.28221,-2.5488 -9,-3.5448 -3.76256,-1.008 -10.00045,-3.8295 -14.06902,-6.3637 -4.02016,-2.504 -10.32016,-6.24845 -14,-8.32106 -7.18902,-4.0491 -10.19061,-6.91062 -10.19061,-9.71504 0,-2.10882 8.29839,-10.01658 10.51138,-10.01658 0.85584,0 2.48534,1.575 3.62112,3.5 1.13577,1.925 2.4706,3.5 2.96627,3.5 1.42348,0 1.05012,-6.70788 -0.59214,-10.63835 -0.82134,-1.96577 -1.26379,-3.94556 -0.98321,-4.39956 1.65983,-2.68566 48.0111,-31.31382 55.00454,-33.97272 3.75114,-1.42618 5.4112,0.24526 10.29758,10.36817 6.04488,12.52296 11.85768,32.2843 8.73381,29.69172 -0.84375,-0.70025 -2.65669,0.52907 -6.24097,4.23189 -8.91951,9.21452 -10.71663,16.47445 -5.3953,21.79573 1.60769,1.6077 3.82099,2.9231 4.91844,2.9231 2.87533,0 6.54509,6.283 5.7128,9.7809 -1.49628,6.2884 -5.77545,16.05954 -8.42083,19.22824 l -2.84318,3.4057 -2.34721,-3.5807 z M 37.80183,919.11184 c 0.25288,-66.56388 0.38025,-71.07535 2.05389,-72.75 1.62483,-1.6258 4.63603,-1.81232 33.69309,-2.08704 l 31.90878,-0.30168 1.80692,2.75433 c 1.51279,2.30599 1.86133,5.39008 2.14117,18.94659 l 0.33426,16.19225 18.66575,0.67431 c 10.26616,0.37088 19.79074,1.01779 21.16574,1.4376 2.75977,0.84259 3.68601,3.53494 3.88169,11.28318 0.1485,5.88023 -1.15077,9.3907 -3.72474,10.06381 -1.84063,0.48133 -2.05111,-0.13344 -2.69591,-7.87417 -0.62005,-7.44361 -0.94117,-8.45527 -2.83022,-8.91634 -1.17195,-0.28605 -14.05582,-0.39366 -28.63082,-0.23914 l -26.5,0.28094 -0.30226,5.25 c -0.28196,4.89738 -0.14763,5.25092 2,5.26365 5.06033,0.03 6.92485,1.11905 6.60607,3.8585 -0.19935,1.71305 -0.99151,2.71304 -2.30381,2.90823 -6.28555,0.93493 -6.5,1.10578 -6.5,5.17831 0,3.8086 0.1071,3.92944 3.75,4.23094 3.55993,0.29464 3.75,0.48777 3.75,3.81037 0,3.3226 -0.19007,3.51573 -3.75,3.81036 -3.5323,0.29235 -3.75,0.50655 -3.75,3.68964 0,3.18309 0.2177,3.39729 3.75,3.68963 3.55993,0.29464 3.75,0.48777 3.75,3.81037 0,3.3226 -0.19007,3.51573 -3.75,3.81036 -3.15886,0.26144 -3.75,0.67369 -3.75,2.61515 0,2.4032 -3.46318,7.57449 -5.07258,7.57449 -1.51316,0 -1.16685,-58.96731 0.36412,-62 1.19068,-2.35862 1.78366,-2.51626 10.48526,-2.78753 l 9.2232,-0.28752 -0.006,-11.71248 c -0.007,-14.47155 -1.07303,-18.91364 -4.78928,-19.95468 -1.48783,-0.41678 -13.60158,-0.75779 -26.91943,-0.75779 -27.95958,0 -27.31398,-0.2043 -28.06747,8.88182 l -0.45473,5.48335 3.86824,0.31742 c 3.69148,0.3029 3.86824,0.4769 3.86824,3.80759 0,3.06516 -0.3523,3.55226 -2.89306,4 -5.77594,1.01785 -6.20442,7.90868 -0.61296,9.85787 2.43707,0.84957 3.00602,1.61357 3.00602,4.03657 0,2.64088 -0.37819,3.02513 -3.25,3.30202 -2.96611,0.28599 -3.25,0.60956 -3.25,3.70437 0,3.30254 0.86482,4.30489 4.75,5.50545 2.58291,0.79815 2.43503,6.60354 -0.16821,6.60354 -3.74453,0 -5.0821,1.15026 -5.06647,4.35699 0.0196,4.03227 0.83532,5.17605 4.29548,6.02335 2.45078,0.60012 2.77099,1.10017 2.5,3.90397 -0.27251,2.81958 -0.71113,3.25429 -3.5608,3.52905 -2.98553,0.28786 -3.25,0.59716 -3.25,3.80102 0,3.05267 0.44456,3.67342 3.56428,4.97692 2.77347,1.15883 3.49454,1.97952 3.25,3.69897 -0.1963,1.3802 -1.13166,2.32612 -2.49166,2.51976 -5.34423,0.76096 -5.57866,7.20786 -0.32864,9.03802 2.45585,0.85612 3.00602,1.60651 3.00602,4.09993 0,2.80043 -0.27849,3.05202 -3.37841,3.05202 l -3.3784,0 -0.41492,15.44289 c -0.35712,13.29179 -0.67424,15.72939 -2.27658,17.49999 -1.02391,1.1314 -2.25073,2.0571 -2.72627,2.0571 -0.48054,0 -0.74485,-31.52231 -0.59501,-70.96462 z m 18.73876,34.42749 c -2.45816,-2.96191 0.0173,-4.96285 6.13982,-4.96285 5.32335,0 5.39102,0.0376 5.39102,3 0,2.90145 -0.16717,3.00975 -5.08883,3.29667 -3.75248,0.21876 -5.44417,-0.1315 -6.44201,-1.33382 z m 0.61759,-16.01896 c -2.75567,-2.75566 -0.23127,-4.5936 5.82442,-4.24056 4.6823,0.27297 5.08883,0.49638 5.08883,2.79667 0,2.26341 -0.43805,2.52837 -4.62874,2.79984 -3.28252,0.21263 -5.11029,-0.18173 -6.28451,-1.35595 z m 46.91325,-6.44389 c 0.33991,-0.55 1.06803,-1 1.61803,-1 0.55,0 0.72188,0.45 0.38197,1 -0.33992,0.55 -1.06804,1 -1.61804,1 -0.55,0 -0.72188,-0.45 -0.38196,-1 z m -45.5,-8.72889 c -2.2463,-0.85509 -3.0177,-2.54486 -1.82036,-3.98757 1.55728,-1.87641 10.72596,-1.69309 11.46362,0.22919 1.31264,3.42071 -4.53907,5.70136 -9.64326,3.75838 z m 46.17963,-0.3283 c -1.64382,-0.65914 -2.22695,-1.58825 -2,-3.18662 0.27907,-1.96539 0.99294,-2.29501 5.53848,-2.55734 4.91998,-0.28395 5.25623,-0.14927 5.88534,2.35733 1.03026,4.10487 -3.53822,5.74663 -9.42382,3.38663 z m -48.7348,-18.11661 c -0.94299,-2.97113 1.81962,-4.8262 7.18728,-4.8262 4.92055,0 5.75887,0.84143 4.39979,4.41608 -0.87406,2.29896 -1.52911,2.58392 -5.93977,2.58392 -4.21122,0 -5.0612,-0.32718 -5.6473,-2.1738 z m 46.93517,0.72169 c -0.8462,-2.20517 0.34349,-3.40539 4.06814,-4.10414 4.85712,-0.9112 7.55186,0.20341 7.55186,3.12364 0,2.28362 -0.33877,2.43261 -5.53139,2.43261 -3.91322,0 -5.6944,-0.4248 -6.08861,-1.45211 z M 56.53722,888.01256 c -1.82477,-3.40961 0.45295,-5.0821 6.44538,-4.73275 4.74462,0.2766 5.07024,0.46281 4.81406,2.75296 -0.34798,3.1109 -1.78408,4.0092 -6.44005,4.0284 -2.73954,0.0113 -4.00481,-0.52655 -4.81939,-2.04861 z m 1.86935,-15.58611 c -4.20773,-1.17226 -3.03975,-6.03336 1.66154,-6.91533 4.35982,-0.8179 6.55002,-0.31404 7.89102,1.81536 2.36554,3.75629 -3.37491,6.82103 -9.55256,5.09997 z"
       id="path4134"
       inkscape:connector-curvature="0" />
  </g>
</svg>
