<svg id="Capa_1" data-name="Capa 1" xmlns="http://www.w3.org/2000/svg" viewBox="0 0 58 46.67"><defs><style>.cls-1{fill:#040006;}.cls-2{fill:#fff;}</style></defs><title>1</title><path class="cls-1" d="M53.66,29c-.06,1.87-2.32,3.27-5.3,3.27s-5.24-1.4-5.3-3.27c-2.67.87-5.53,2-6.43,3.24-1.27,1.72-.86,8.52-.86,8.52H60.94s.41-6.8-.86-8.52C59.18,31,56.33,29.86,53.66,29Z" transform="translate(-3 -9.67)"/><path class="cls-1" d="M44.55,26.73s-.43,2.1-.43,2.19c0,1.26,1.91,2.29,4.24,2.29s4.25-1,4.25-2.29c0-.09-.44-2.19-.44-2.19a10.16,10.16,0,0,0,4.22-8.37c0-5-3.59-8.69-8-8.69s-8,3.65-8,8.69A10.16,10.16,0,0,0,44.55,26.73Z" transform="translate(-3 -9.67)"/><path class="cls-2" d="M41.13,31a11.12,11.12,0,0,0,4.63-9.18c0-5.53-3.94-9.53-8.8-9.53s-8.81,4-8.81,9.53A11.12,11.12,0,0,0,32.78,31s-.48,2.31-.48,2.4l-1.16.08c-2.93,1-6.07,2.23-7,3.56-1.4,1.88-.95,9.33-.95,9.33H50.75s.45-7.45-.94-9.33c-1-1.33-4.12-2.61-7-3.56l-1.18-.3Z" transform="translate(-3 -9.67)"/><path class="cls-1" d="M41,34c-.07,2.12-2.62,3.71-6,3.71S29,36.15,29,34c-3,1-6.28,2.31-7.3,3.68-1.44,1.95-1,9.66-1,9.66H49.24s.47-7.71-1-9.66C47.24,36.34,44,35,41,34Z" transform="translate(-3 -9.67)"/><path class="cls-1" d="M30.66,31.47s-.5,2.39-.5,2.48c0,1.43,2.17,2.6,4.82,2.6s4.81-1.17,4.81-2.6c0-.09-.49-2.48-.49-2.48A11.52,11.52,0,0,0,44.08,22c0-5.71-4.08-9.86-9.1-9.86S25.87,16.27,25.87,22A11.51,11.51,0,0,0,30.66,31.47Z" transform="translate(-3 -9.67)"/><path class="cls-2" d="M26.5,37.22a12.83,12.83,0,0,0,5.35-10.61c0-6.39-4.56-11-10.18-11s-10.18,4.63-10.18,11a12.87,12.87,0,0,0,5.35,10.61s-.55,2.67-.55,2.78L15,40.09c-3.38,1.1-7,2.58-8.16,4.11C5.18,46.39,5.71,55,5.71,55H37.62s.53-8.61-1.09-10.8c-1.14-1.53-4.76-3-8.14-4.11L27,39.74Z" transform="translate(-3 -9.67)"/><path class="cls-1" d="M26.5,41c-.08,2.44-3,4.28-6.93,4.28s-6.87-1.84-6.94-4.29c-3.5,1.14-7.25,2.66-8.42,4.25C2.54,47.44,3.08,56.33,3.08,56.33H36s.54-8.89-1.13-11.14C33.73,43.61,30,42.08,26.5,41Z" transform="translate(-3 -9.67)"/><path class="cls-1" d="M14.58,38S14,40.74,14,40.85c0,1.65,2.5,3,5.56,3s5.55-1.34,5.55-3c0-.11-.57-2.87-.57-2.87A13.25,13.25,0,0,0,30.07,27c0-6.6-4.7-11.38-10.5-11.38S9.06,20.43,9.06,27A13.26,13.26,0,0,0,14.58,38Z" transform="translate(-3 -9.67)"/></svg>